<svg xmlns="http://www.w3.org/2000/svg" width="29.027" height="28.44" viewBox="0 0 21.77 21.33">
  <defs>
    <clipPath id="prefix__a">
      <path d="M0 0h21.77v21.328H0zm0 0" />
    </clipPath>
  </defs>
  <g clip-path="url(#prefix__a)">
    <path
      d="M13.188 7.664c.21.117.44.215.605.379.086.219.246.363.379.531.058.778.18 1.492.152 2.352-.254.097-.437.27-.68.383-.78-.008-1.359-.211-1.898-.457-.172-.258-.355-.504-.535-.758V9.03c.172-.183.32-.39.457-.61.23-.124.508-.198.457-.605-.04-.062-.082-.125-.078-.23.16.047.246.16.379.23.324.016.41-.199.761-.152m1.137 3.793c-.234-.055-.144.211-.379.152.07-.156.121-.336.23-.453.134.02.173.13.15.301m-2.2 2.582c.035-.11.066.008.152 0-.02.098-.152.078-.152 0m-.758-2.883c-.043-.039.051-.097.074-.078.04.04-.054.098-.074.078m-.383-3.949c-.203.258.043.578.079.836-.305-.04-.575-.887-.079-.836M9.316 9.332c.016-.086.075-.043.075 0-.016.086-.075.043-.075 0m-.457 2.05c.04-.116.079-.003.079.075-.043.117-.083.008-.079-.074m-.074-.305c-.113-.062-.11-.242-.152-.379.254-.078.117.239.152.38M12.2 6.75c-.222-.23-.676-.23-.988-.379-.695-.035-1.219.094-1.746.23-.3.149-.606.305-.91.454-.262.168-.442.418-.758.53-.207.228-.352.513-.684.61-.004.223-.172.282-.304.38-.09.113-.094.312-.227.378-.008.121.035.29-.074.305.11 1.512.289 2.945.68 4.176.289.625.976.843 1.445 1.289.586.297 1.328.445 2.125.53.277-.05.55-.105.91-.073a5.098 5.098 0 002.809-1.442c.101-.281.253-.508.457-.683-.254-.672.293-1.098.457-1.598 0-1.344-.204-2.48-.61-3.414-.254-.578-.922-.754-1.367-1.14-.059-.016-.148 0-.148-.075-.27-.133-.735-.234-1.067-.078m1.14-1.82c-.112.047.005.093 0 0m-2.808-.606c.02.02.114-.039.074-.078-.02-.02-.113.035-.074.078m.531-.383c-.316-.07-.015.23 0 0m2.278.989c.531-.047.746-.414 1.215-.532.28-.296.78-.378.988-.757-.563.023-.766.398-1.219.53-.281.298-.75.411-.984.759m-2.277-.989a2.03 2.03 0 00.835-.605 2.015 2.015 0 00-.835.605m.835-.605c.063.016.07-.031.075-.074-.067-.016-.07.027-.075.074m.075-.074c.066.011.07-.032.074-.078-.063-.016-.07.03-.074.078m.074-.078c.113-.047-.004-.09 0 0m.683-.61c-.109.047.008.094 0 0m.684.836c.727-.156 1.18-.59 1.746-.91-.437.02-.59.32-.988.379-.215.219-.598.262-.758.531m1.746-.91c.113-.047-.008-.09 0 0m-1.062-.605c-.528.152-1.016.347-1.368.68.485-.196 1.063-.305 1.368-.68m0 0c.109-.047-.008-.094 0 0m5.847 3.718c-.64-.12-1.234-.285-1.898-.379.07-.332.797-.011.988-.226.383-.223.293-.922.3-1.52.036-.347.118-.644.08-1.062-.403-.953-1.786-.422-2.888-.457-.226.718-.468 1.8-.304 2.656.172.492 1.027.293 1.52.457-.141.332-.688.059-.99.074-.296-.082-.706-.05-.983-.148-2.286.074-4.286.004-6.532.148.117-1.246.063-2.465-.074-3.64h3.113c-.347.363-.914.504-1.293.832-.441.246-.859.507-1.136.914.246.133.535-.246.757-.38.356-.073.48-.382.836-.456.422-.438 1.094-.625 1.668-.91.38-.024.7.011.989.074 1.28.008 2.457.129 3.797.074.613.149 1.449.07 1.972.305.106.297.23.582.305.914.008.992-.149 1.824-.227 2.73m-.379 11.16c-.109.954-.16 1.97-.382 2.809-2.887.121-6.016.004-8.883.152-.2.047-.27-.03-.227-.226-.254 0-.258.246-.531.226.203-.336.437-.898.152-1.289-.797.012-.797.82-1.14 1.29-.684-.051-1.137.128-1.82.074.18-.704.75-1.02.91-1.743-.395-.55-.989.137-1.215.454-.203.48-.555.808-.758 1.289h-.988c.238-.465.488-.922.761-1.364.168-.511.625-.742.68-1.367-.156-.281-.418-.031-.68 0-.125.18-.273.332-.383.531-.23.375-.5.711-.683 1.137-.18.211-.336.004-.527.23-.391.27-.582.735-.989.985-.175-.059.035-.356.153-.379.046-.18-.098-.55.074-.605.062-.368.21-.649.379-.915.117-.742.523-1.199.683-1.898-.558.102-.672.645-.988.988-.21.446-.539.774-.684 1.293-.171-.133-.027-.582-.074-.836.121-.586.297-1.12.38-1.746.132-.222.171-.535.23-.836.168-.207.046-.609-.079-.761-.226.027-.374.132-.457.304-.19-.03-.19.508-.3.305-.047-2.586-.453-4.813-.457-7.438.027-.332-.184-.425-.227-.687a73.57 73.57 0 014.781.23c-.09.137-.199.258-.3.38-.145.07-.227.171-.383.304-.602 1.652-.973 3.984-.606 6.149.227.582.59 1.03.989 1.44.906.485 1.632 1.15 2.503 1.673 1.7.36 3.84.367 5.543 0 .235-.121.48-.227.684-.38 1.363-1.241 2.75-2.46 2.961-4.858V10.32c-.2-1.597-.691-2.906-1.75-3.644.332-.219 1.102.043 1.672.074.223.016.45.016.683 0 .407-.023.93-.055 1.442 0 .144.188.117.547.23.762-.062 1.683-.195 3.3-.152 5.086.102.457.125.988.227 1.441-.09.977-.235 1.895-.454 2.734M1.344 5.688v-1.59a7.96 7.96 0 01.61-.535c.292.492.175 1.39.452 1.898-.277.156-.75.11-1.062.226M1.27 2.426c.222-.207.449-.41.683-.61-.023-.12.07-.129.074-.226h.227c.101.383-.258.297-.3.531.019.121-.075.129-.079.227.02.336.121.59.078.988-.273.008-.277.281-.61.227.024-.426-.132-.672-.073-1.137m.453-.762c-.036.223-.325.18-.38.379-.214-.168.083-.465.38-.379m.988-.074c.027.258-.441.32-.379 0zm.684 3.719c.148-.028.109.347-.079.23a.395.395 0 00.079-.23m.226-3.72c.035.157-.05.2-.074.306-.176.023-.086-.22-.23-.23.023-.103.19-.063.304-.075m0 1.137c-.262.054-.273-.266-.152-.38.261-.054.273.266.152.38m-.226 2.05c.074-.308.03-.3.074-.68.23.012.261.766-.074.68m.152-.988c-.207.023-.219-.531-.078-.605.328.007.25.5.078.605m.531 0c.004-.105.012-.21-.078-.227-.07-.734.129-1.414 0-1.972.25-.156.77-.043 1.14-.078v1.14a.487.487 0 01-.378.075c-.055.28.324.132.379.304.007.856-.059 1.778.152 2.43-.566-.059-.906.105-1.441.074.093-.61-.02-1.433.527-1.594-.008-.14-.254-.046-.3-.152m2.35 1.219c.176-.028.087.219.231.226-.012.192-.285.18-.383.075.04-.11.114-.192.153-.301m.152-.23c-.059.14-.082-.044-.074-.153.054-.137.078.047.074.152m0-1.367c-.133-.066-.168-.234-.152-.453.133.07.168.238.152.453M6.43 1.59c.09-.012.133.015.152.074.18.254.008.684-.074.914-.176-.18-.028-.683-.078-.988m.683 1.594c-.117-.262-.066-.692-.074-1.063-.008-.285.277-.277.3-.531 0-.074-.089-.059-.152-.074.13-.149.704-.098.836 0 .133.535-.355.453-.53.68.01.167.323.034.456.077.031.852-.058 1.497 0 2.204h-.457c-.004.23.23.222.457.226-.058.285.094.363.074.606-.226.152-.714.043-1.062.078-.102-.594.238-1.375.152-2.203m1.672 2.734c.758-.152 1.48-.344 2.426-.305.71.074 1.289.282 1.898.453.118.184-.242.547.157.684v.078c.058.016.148 0 .148.074.445.035.793.168 1.063.38.453.054.539.476 1.14.382-.09.211-.086.524-.074.832.324 1.184.473 2.813.3 4.254-.163.164-.214.441-.3.684-.313.32-.484.785-.836 1.062a1.09 1.09 0 01-.457.531c-.117.215-.207.453-.457.532-.297.164-.578.011-.832-.079-.445.165-.906.313-1.215.61-.816-.098-1.648-.176-2.43-.305-.242-.137-.488-.273-.836-.305a1.989 1.989 0 00-.835-.453c-.102-.129-.336-.12-.457-.23-.196-.027-.227-.227-.454-.227-.117-.414-.441-.62-.53-1.062-.227-.332-.31-.805-.458-1.215-.043-1.434.094-2.691.379-3.797.348-.59.781-1.094 1.14-1.668.247.02.364-.09.38-.305.304.051.433-.074.683-.074.254-.074.266-.39.457-.531m12.98 6.223c-.011-2.395-.343-4.79-.304-7.133a35.11 35.11 0 00-.152-2.281c-.102-.297-.11-.7-.149-1.063-.262-.168-.223-.637-.457-.836-.422-.23-1.203-.11-1.746-.226-.656-.024-1.254-.114-1.898-.153-1.934-.097-3.973-.074-5.997-.074-2 0-3.953-.145-5.695-.379H3.164C3.07 0 3.062.094 2.937.07 2.34.105 1.863.262 1.345.375 1.133.492.922.609.66.68.523.87.148.824.055 1.059c-.188.21.183.453 0 .605v.914c.172.129.027.578.074.832v.988C.113 5.68.262 6.797.207 8.118c.465 2.765.371 6.538.074 9.413.156.578.364 1.106.453 1.746.258.48.336 1.133.684 1.52.504.207 1.234.187 1.898.23.383.098.668.293 1.141.301 2.844-.207 5.496-.152 8.426-.226 2.703.242 5.8.187 8.277-.227.195-.137.13-.531.227-.762-.055-.383.207-.449.226-.758.133-2.394.168-4.789.153-7.214"
      fill="#221f1f" />
  </g>
</svg>