<svg version="1.1" id="Слой_1" role="img" aria-label="Лого" xmlns="http://www.w3.org/2000/svg"
	xmlns:xlink="http://www.w3.org/1999/xlink" x="0px" y="0px" viewBox="0 0 86 37"
	style="enable-background:new 0 0 86 37;" xml:space="preserve">
	<g id="fLayer_2" class="ears">
		<path d="M83.2,16.1c-0.9,0.5-1.8,0.9-2.7,1.3c0-0.8-0.1-1.7-0.3-2.5c0.1-0.1,0.1-0.3,0.1-0.5c0.2-1.4,0.4-3.4-1.2-4.4
		c-0.2-0.1-0.7,0-1.1,0.1c-0.1-0.1-0.2-0.1-0.3-0.2c-0.1-0.1-0.1-0.2-0.1-0.3c0,0-0.1-0.1-0.2-0.1c0.2-0.2,0.2-0.4-0.2-0.5
		c-0.2-0.1-0.5-0.1-0.6-0.2c-0.1,0-0.1,0-0.1,0c-0.5-0.1-1.1-0.2-1.7-0.3C74.7,8.4,74.8,8.1,75,8c0.1-0.1,0.2-0.1,0.2-0.2l0.1-0.1
		c0,0,0.1,0,0.1,0l0.1,0c0.2-0.1,0.5-0.4,0.1-0.6c-0.3-0.1-0.9,0-1.2,0.1c-0.5,0.3-0.9,0.7-1.2,1.2c-1.2-0.1-2.3-0.1-3.5,0
		c0.1,0,0.1-0.1,0.1-0.1c0.1-0.3-0.5-0.2-0.7-0.2C68,8,67.2,8.1,66.2,8.2c0.8-1.8,1.8-4.1,0.6-5.9c-0.7-1-2.3-1.2-3.5-1.3
		c-1.4,0-2.8,0.2-4.1,0.8c-2.8,1.2-4.1,3.7-4.8,6.3c-0.3-0.3-1.3-0.2-1.5,0.2c-0.1,0.1-0.1,0.3-0.2,0.5c-0.1,0.1-0.1,0.3-0.1,0.3
		V8.6h-0.2c0,0,0,0.5,0.1,0.4c0.1,0,0.1-0.1,0.2-0.2c0.3-1.1,0.7-2.2,1.1-3.3c0.2-0.4-1.5-0.2-1.6,0.2c-0.2,0.6-0.5,1.2-0.6,1.7
		c-0.1,0-0.2,0.1-1.6,0.1v0c1.3,0,1.4-0.1,1.4-0.1V7.1l-2.8,0.4v0.8c0,0,0.7,0.1,0.6,0.1L49,8.5c-0.1,0-0.4,0.1-0.4,0.1v0l0.3,0
		c-0.1,0-0.1,0.1,0,0.2C49,9,49.2,9,49.3,8.6h-0.7v1.5h0.4l-0.2-0.9c0-0.2-0.4-0.2-1.5-0.1v0c0.7-0.3,0.6-0.6,0.6-0.9
		c0.1,0,0.3-0.1,0.4-0.1c0.1,0,0.2-0.1,0.4-0.2V7.7c-0.2-0.1-0.5-0.6-0.5-0.6h-0.3c0,0-0.1-0.7-0.1-1.4c0-0.4-1.6-0.1-1.6,0.4
		c0,0.9,0,1.7,0.1,2.5h-0.4V7.9c0.2-0.5-0.6-0.6-1-0.4C44.9,7.4,45,7.3,45,7.1c-0.2-0.7-0.5-1.3-0.6-2.1c-0.1-0.7-1.7-0.3-1.6,0.4
		c0.1,0.7,0.3,1.4,0.6,2.1c0.1,0.4,0.8,0.4,1.2,0.2c-0.1,0.1-0.2,0.4-0.2,0.4v0.3c0,0-0.3-0.1-0.6-0.1c-0.6,0-1,0.4-0.8,0.7
		c-0.1,0-0.2,0-0.3,0c-0.2-0.6-0.4-1.2-0.4-1.8c0-0.4-0.7-0.3-0.7-0.3V7c-0.2-0.4-0.3-0.8-0.5-1.2c-0.2-0.6-1.9-0.3-1.6,0.4
		c0.1,0.3,0.2,0.6,0.3,0.9h-0.1c-0.2,0-0.3,0.1-0.5,0.2c-0.5,0-1,0.3-1,0.6c0.1,0.2,0.1,0.5,0.1,0.7c-0.2,0-0.6,0-0.9,0.1
		c-0.2-0.4-0.3-0.8-0.3-1.2C37,7,36.2,7,35.8,7.3c-0.5-1-1-1.9-1.8-2.8c-1.6-1.6-4.2-2.2-6.6-1.8C26.3,3,25.3,3.3,24.5,4
		c-0.7,0.7-0.8,1.5-0.7,2.3c0.1,0.7,0.3,1.9,0.9,2.9c-0.2,0-0.4,0-0.5,0c-0.2,0-0.3,0.1-0.5,0.2c-1.1,0-2.3,0-3.4,0
		c-2.4-0.1-4.8-0.4-7.3-0.3c-0.5,0-0.9,0.3-0.9,0.6c-0.6,0.2-1,0.6-1.2,1.1c-1-0.5-2-1.1-3.1-1.5C7.6,9.1,6,9.6,6.6,9.8
		c1,0.4,2.1,1,3.1,1.5c0.3,0.1,0.8,0,1,0c0,0,0.1,0,0.1,0c-0.2,0.7-0.1,1.5,0.1,2.2c0,0,0.1,0.1,0.1,0.1v0.2c0,0-1,0.2-1,0.4
		c-0.1,0.7-0.2,1.3-0.2,2c-0.2,0.1-0.3,0.2-0.3,0.4c-0.1,1.6,0,3.2,0.3,4.8c0.1,1.3,0.4,2.5,0.7,3.8c0.1,0.2,0.1,0.4,0.1,0.6
		c-0.2,0.5-0.2,1.2-0.1,1.7c-0.5,0.1-1,0.4-0.7,0.8c0.5,0.6,0.9,1,1.5,1.2c-0.3,0-0.8,0-1.1,0.3c-0.5,0.4-1,0.7-1.5,1.1
		c-0.2,0.2-0.2,0.4,0.2,0.5c0.4,0.1,0.9,0,1.2-0.2c0.5-0.4,1-0.7,1.5-1.1c0.1-0.1,0.2-0.2,0.1-0.3c1.9,0.8,4.2,0.6,6.4,0.4
		c-0.5,0.8-0.9,1.6-1.3,2.4c-0.2,0.3,1.5,0.2,1.6-0.2c0.3-0.8,0.7-1.6,1.2-2.4c2.1,0,4.4,0,6.5,0c0.1,0.1,0.2,0.1,0.4,0.1
		c1.9,0.1,3.8,0,5.6-0.3c2.8-0.1,5.6-0.2,8.4-0.4c4.4-0.1,8.8-0.1,13.1-0.1l0.2,0.1c0.2,0.1,0.3,0.1,0.6-1.1h0.1
		c0.4,1.3,0.8,1.3,1.2,1.3c0.1,0,0.2,0,0.3,0c0.5,0,0.9,0,1.3,0.1c0.1,0.1,0.3,0.1,0.5,0.2c2.2,0.1,4.4,0.2,6.6,0.3
		c0.1,0.1,0.3,0.1,0.5,0.1c4.1,0,8.9,1.3,12.5-0.8c0.3-0.2,0.2-0.4-0.2,0.3h-0.2c0.7-2.1,1.3-3.4,1.7-4.9c0.2-0.1,0.3-0.2,0.3-0.4
		c0-0.6,0.1-1.2,0.2-1.7c0.1-0.4,0.2-0.9,0.2-1.3c0.2-1.1,0.5-2.1,0.6-3.1c1.3-0.5,2.6-1.1,3.8-1.8C85.2,16.1,83.8,15.8,83.2,16.1
		L83.2,16.1z M51,9L51,9c0-0.1,0-0.2,0.1-0.4h0.1C51.1,8.7,51.1,8.8,51,9z"></path>
		<path d="M36.8,7.1c0.1,0.1,0.3,0.1,0.5,0.1c0.2,0,0.5,0,0.6-0.1c0.2-0.1,0.6-0.3,0.5-0.5C38.1,6.2,38,6,37.8,5.7
		c-0.1-0.1-0.3-0.1-0.5-0.1c-0.2,0-0.5,0-0.6,0.1C36.4,5.8,36,6,36.2,6.2C36.4,6.5,36.6,6.8,36.8,7.1z M12,6.2
		c0.1,0.3,0.6,0.3,0.9,0.2c0.3,0,0.8-0.3,0.7-0.6c-0.1-0.3-0.2-0.6-0.5-0.9c-0.3-0.2-0.8-0.2-1.1-0.1c-0.2,0.1-0.7,0.4-0.4,0.6
		C11.9,5.8,11.9,6,12,6.2z M17.8,7.7c0.5,0,1.8-0.6,0.7-0.6C18,7.1,16.7,7.7,17.8,7.7z M71.2,6.9c0.2,0,0.4,0,0.6,0
		c0.2,0,0.4-0.1,0.5-0.2c0.2-0.2,0.4-0.3,0.6-0.6C73,6,73.1,5.9,73,5.8c-0.1-0.1-0.3-0.1-0.5-0.1c-0.2,0-0.5,0-0.6,0.1
		c-0.2,0-0.3,0.1-0.5,0.3c-0.1,0.1-0.1,0.2-0.2,0.2l-0.1,0.1c-0.1,0.1-0.2,0.2-0.2,0.3C70.9,6.8,71.1,6.9,71.2,6.9z M79,9.5
		c0.3,0,0.8-0.1,1.1-0.3c0.8-0.5,1.5-1.1,2.1-1.7c0.2-0.2-0.6-0.1-0.6-0.1c-0.3,0-0.8,0.1-1,0.3c-0.5,0.6-1.3,1.1-2,1.6
		C78.3,9.5,78.8,9.5,79,9.5z M85.2,22.3h-2.8c-0.3,0.2-0.9,0.5-0.9,0.8c-0.1,0.3,0.5,0.4,0.8,0.8h2.8c0.3-0.3,0.9-0.6,0.9-0.9
		C86.1,22.6,85.6,22.5,85.2,22.3z M33.1,30.2c-0.3,0-0.8,0.1-0.9,0.4c-0.3,0.6-0.6,1.2-0.8,1.9c-0.1,0.3,1.5,0.1,1.6-0.2
		c0.2-0.6,0.5-1.2,0.8-1.9C33.9,30.1,33.2,30.2,33.1,30.2z M35.8,31.5c-0.2,0-0.4,0-0.6,0.1c-0.2,0-0.4,0.1-0.6,0.2
		c-0.1,0-0.2,0.1,0,0.2v0.1c-0.2,0-0.3,0.1-0.3,0.1c-0.1,0-0.1,0.1,0,0.1c0.1,0,0.3,0,0.4,0c0.2,0,0.4,0,0.6-0.1
		c0.1,0,0.3-0.1,0.5-0.2C36,32,36,32,36.1,31.9v-0.2C36.1,31.5,35.9,31.5,35.8,31.5z M67.8,33.2c-0.2-0.3-1.7,0.1-1.6,0.4
		c0.5,0.8,1.1,1.5,1.7,2.3c0.2,0.3,1.7-0.2,1.6-0.4C68.9,34.7,68.3,34,67.8,33.2z M70.1,32.1c-0.2-0.3-0.6-0.3-0.9-0.2
		c-0.2,0-0.9,0.3-0.7,0.6c0.2,0.4,0.5,0.8,0.7,1.1c0.2,0.3,0.6,0.3,0.9,0.2c0.2,0,0.9-0.3,0.7-0.6C70.6,32.9,70.4,32.5,70.1,32.1z
		 M3.3,21.7c-0.9,0.2-1.7,0.3-2.6,0.5c-0.3,0-0.8,0.3-0.7,0.6c0.1,0.3,0.6,0.3,1,0.3c0.9-0.2,1.7-0.3,2.6-0.5c0.3,0,0.8-0.3,0.7-0.6
		C4.1,21.7,3.6,21.7,3.3,21.7z"></path>
	</g>
	<g>
		<path class="bg" d="M75.2,28.3c2.6,0.4,0.5-17.3,0.1-18.4c-1.2-3.2-15.5-1-18.7-0.8c-7.4,0.5-14.6-0.5-21.8-0.2c-3.6,0.1-20.3-0.9-21.8,1
		c-2.9,3.5-1.6,12.4-0.8,16.9c-2.3,0.4,1.3,2,1.8,2.4c3.7,1.1,9.5-0.1,13.4,0.2c8.9,0.7,18.5-1.1,27.5-0.5c2.6,0.5,5.6,0.5,8.3,0.6
		C65.1,32.1,74.5,28.3,75.2,28.3C75.1,28.3,75.5,28.4,75.2,28.3z"></path>
	</g>
	<g id="fLayer_1_1_">
		<path class="words" d="M25.2,20.3c-0.1-1.3-0.3-2.6-0.3-3.9c0-1.1,0.2-2.2-0.2-3.2c0-0.1,0.1-0.2,0.1-0.3c0.1-0.5-1.9-0.2-2.2,0.2
		c-0.2,0.1-0.3,0.3-0.2,0.5c0,0,0.1,0.1,0.1,0.1c-0.4,1.5-0.9,3.1-1.5,4.6c-0.2,0.6-0.5,1.2-0.8,1.7c-0.3-0.5-0.7-1.1-1-1.6
		c-0.8-1.7-1.5-3.4-2.5-4.9c0.1-0.7-1.9-0.7-2.3,0c-0.5,0.8-0.4,1.6-0.2,2.5c0.2,1,0.2,2,0.2,3c0,1.9,0.2,3.8,0.2,5.8
		c-0.2,0.2-0.3,0.4-0.1,0.7l0.3,0.3c0.5,0.3,2,0,2-0.6c0-2-0.2-4-0.2-6v-0.6c0.1,0,0.1,0.1,0.1,0.2c0.3,0.8,0.8,1.5,1.3,2.3
		c0.5,0.7,0.8,1.5,1,2.3c-0.1,0.1-0.2,0.2-0.1,0.3c0,0.1,0.1,0.1,0.2,0.2c0.3,0.3,1.1,0.1,1.5,0c0.2,0,0.3-0.1,0.5-0.2
		c0.2-0.1,0.5-0.3,0.4-0.6c0,0-0.1-0.1-0.1-0.1c0.3-0.6,0.4-1.2,0.6-1.9c0.2-0.7,0.5-1.3,0.8-2c0.1,0.3,0.1,0.6,0.1,0.9
		c0.1,1.2,0,2.5,0,3.7c0,0.4,0.1,0.8,0.1,1.2c0.1,0.1,0.2,0.9,0.2,0.9c-0.3,0.3-0.2,0.6,0.2,0.7c0.5,0.1,1.2,0,1.6-0.3
		c0.7-0.5,0.3-1.4,0.2-2.1C24.9,22.7,25.2,21.4,25.2,20.3z M30.3,20.6c-0.1-1-0.5-1.9-0.5-2.8c0-1.1,0.1-2.2-0.1-3.3
		c-0.1-0.3-2.4,0-2.3,0.5c0.2,1,0.1,2.1,0.1,3.1s0.3,1.9,0.4,2.9c0.2,1-0.1,2,0.1,3c0.1,0.5,0.5,1.3,0.1,1.7
		c-0.2,0.2,0.9,0.1,0.9,0.1c0.5,0,1-0.2,1.3-0.5c0.4-0.4,0.1-1.2,0.1-1.6C30.3,22.6,30.4,21.6,30.3,20.6z M39.9,19
		c-1.2-1.3-3.4-0.4-5-0.8c-0.8-0.2-0.8-1.1-0.8-1.6c0-0.7-0.1-1.3-0.2-2c-0.1-0.5,0-1,0.5-1.4c0.1,0,0.5-0.1,0.5-0.1
		c0.2,0,0.4,0,0.6,0c0.9,0,2.7,0.1,2.4,1.2c-0.2,0.5,2.1,0.2,2.3-0.3c0.7-2.2-4.3-1.8-5.7-1.5c-1.3,0.3-2.7,0.9-2.8,2.1
		c-0.1,0.6,0.2,1.2,0.2,1.7c0.1,0.7-0.1,1.3,0.2,2c0.6,1.4,3.3,0.8,4.5,0.9c2.3,0.1,1.6,2.6,1.6,3.8c0,0.6,0.7,1.7,0.1,2.2
		c-0.3,0.3-1.2,0.3-1.6,0.4c-0.5,0-1.3,0.1-1.6-0.2c-0.6-0.7,0.1-1.8-0.1-2.6c-0.1-0.5-2.4,0-2.3,0.5c0.2,1.3-0.8,3,1.4,3.2
		c1.5,0.1,3-0.1,4.4-0.4c0.7-0.2,1.3-0.5,1.9-0.9c0.6-0.4,0.4-1.2,0.2-1.7C40.2,21.9,41,20.2,39.9,19z M49.5,18.9
		c-0.1-1.8-0.4-3.7-0.4-5.5c0-1-2.3-0.6-2.3,0.1c0,1.7,0.3,3.5,0.4,5.2v0.1c-1.2,0-2.3,0.1-3.4,0.1c0.1-2.3-0.3-4.5-0.2-6.7
		c0-0.3-2.3,0-2.3,0.5c-0.1,2.2,0.3,4.3,0.3,6.5c-0.1,1.1-0.1,2.1-0.2,3.1c0,0.5,0.1,1.1,0.2,1.6c0.1,0.5,0.3,1.2,0.1,1.6
		c-0.1,0.4,2.1,0.1,2.3-0.3c0.3-0.9-0.1-2-0.2-2.8c-0.1-0.8,0-1.7,0.1-2.5c1.2,0,2.4-0.1,3.5,0l0.2,2c0.1,0.6,0.1,1.1,0.1,1.7
		c0,0.5,0.1,1.2-0.1,1.7c-0.5,1,1.9,0.9,2.2,0.2c0.4-0.9,0.3-2,0.2-3C49.7,21.3,49.5,20.1,49.5,18.9z M59.5,20.6
		c-0.5-1.3-1.4-2.5-2.1-3.8c0.6-1,1.2-1.9,1.7-2.8c0.5-0.9,0.9-1.9,1.8-2.5c0.3-0.2,0.3-0.4-0.2-0.5c-0.5,0-1.2,0.1-1.6,0.3
		c-0.9,0.6-1.4,1.2-1.9,2.1c-0.6,1-1.1,2-1.7,2.9c-0.1,0-0.1,0.1-0.1,0.2c-0.3,0.1-0.5,0.4-0.3,0.6c-0.5,0.8-0.9,1.5-1.5,2.3
		c-0.2-2.7-0.6-5.4-0.7-8.1c0-0.6-2.3-0.2-2.3,0.5c0.1,3.3,0.7,6.6,0.8,10v0c-0.2,0.1-0.1,0.2,0.1,0.3c0,0.9-0.1,1.7-0.1,2.5
		c-0.3,0.4,0.3,0.5,0.6,0.5H52c0.4,0,1.5-0.2,1.6-0.7c0.1-1,0.2-2,0.1-3c0.9-0.8,1.7-1.8,2.4-2.7c0.5,0.7,0.9,1.4,1.2,2.2
		c0.5,1.3,1.3,2.5,1.9,3.9c0.3,0.9,2.6,0.3,2.3-0.5C60.9,23.2,60,21.9,59.5,20.6z M73.4,18.8c-0.1-0.4-0.8-0.4-1.3-0.4V18
		c-0.1-1.3-0.1-2.6-0.2-3.8c-0.1-1.2-0.9-1.6-2.3-1.6c-1.4,0-3,0.2-4.4,0.7c-1.5,0.5-2.4,1.4-2.6,2.7c-0.3,1.4,0.1,3,0.2,4.4
		c0.1,1.7,0.1,3.4,0.1,5c0,0.3,2.3,0,2.3-0.5v-4c0-0.4-0.1-0.8-0.1-1.2c0.8-0.3,2.1,0,2.9,0c0.6,0,1.3-0.1,1.9-0.1
		c0,1.1,0.1,2.2,0.1,3.3c0,0.6,0.3,1.7-0.2,2.2c-0.2,0.2,0.9,0.1,0.9,0.1c0.5,0,1-0.2,1.3-0.5c0.6-0.5,0.3-1.8,0.2-2.5
		c-0.1-0.9-0.1-1.8-0.1-2.7C72.8,19.6,73.6,19.2,73.4,18.8z M65.2,18.7c-0.1-0.6-0.1-1.2-0.2-1.8c-0.1-1.2,0.1-2.7,1.3-3.4
		c0.3-0.2,1-0.1,1.4-0.2c0.6-0.1,1.2-0.2,1.7,0.1c0.7,0.4,0.5,1.8,0.5,2.4c0,1,0.1,1.9,0.2,2.9c-0.3,0-0.6,0-1,0
		C67.8,18.7,66.5,18.5,65.2,18.7z M28.8,13.1c0.3,0,0.6-0.1,0.9-0.2c0.1,0,0.1,0,0.2-0.1c0.3-0.1,0.6-0.4,0.4-0.7
		C29.9,11.6,30,11,30,10.5c0-0.5-0.6-0.6-1-0.6c-0.4,0-1.3,0.3-1.3,0.7c0,0.5-0.1,1,0.1,1.4c0,0-0.1,0.1-0.1,0.2
		c-0.1,0.1,0,0.2,0.1,0.3v0.2c0.1,0.1,0.1,0.2,0.2,0.2C28.2,13.1,28.5,13.1,28.8,13.1z"></path>
	</g>
	<path class="line" d="M70.7,28.3c-1.1-0.2-2.3-0.3-3.4-0.3c-1.1-0.1-2.3-0.2-3.4-0.2c-1.2,0-2.3,0-3.5,0l-3.5,0.1c-4.6,0.1-9.2,0.1-13.8,0
	c-4.6,0-9.2-0.2-13.8-0.2c-2.3,0-4.6,0-7,0.1c-1.2,0.1-2.3,0.2-3.5,0.4c-1.2,0.2-2.2,0.4-3.4,0.5c1.2,0.1,2.4,0.1,3.5,0.1
	s2.3,0,3.4,0.1c2.3-0.1,4.6-0.1,6.9-0.1c4.6,0,9.2,0.1,13.8,0.2c4.6,0,9.2,0.1,13.9,0l3.5-0.1c1.1,0,2.3,0,3.4,0
	c1.2,0,2.3-0.1,3.5-0.2C68.4,28.5,69.5,28.3,70.7,28.3L70.7,28.3L70.7,28.3C70.7,28.2,70.7,28.2,70.7,28.3z"></path>
</svg>