<?xml version="1.0" encoding="utf-8"?>
<!-- Generator: Adobe Illustrator 26.1.0, SVG Export Plug-In . SVG Version: 6.00 Build 0)  -->
<svg version="1.1" id="Слой_1" xmlns="http://www.w3.org/2000/svg" xmlns:xlink="http://www.w3.org/1999/xlink" x="0px" y="0px"
	 viewBox="0 0 60 44" style="enable-background:new 0 0 60 44;" xml:space="preserve">
<g>
	<path style="fill:#E6E7E8;" d="M204,39c-9,0-13.7-6-17.5-10.8c-3.4-4.3-5.9-7.5-11.2-7.5c-5.4,0-7.8,3.1-11.2,7.5
		C160.2,33,155.5,39,146.5,39s-13.7-6-17.5-10.8c-3.4-4.3-5.9-7.5-11.2-7.5s-7.8,3.1-11.2,7.5C102.7,33,98,39,89,39
		s-13.7-6-17.5-10.8c-3.4-4.3-5.9-7.5-11.2-7.5c-5.4,0-7.8,3.1-11.2,7.5C45.2,33,40.5,39,31.5,39S17.8,33,14,28.2
		c-3.4-4.3-5.9-7.5-11.2-7.5c-5.4,0-7.8,3.1-11.2,7.5C-12.3,33-17,39-26,39s-13.7-6-17.5-10.8c-3.4-4.3-5.9-7.5-11.2-7.5
		s-7.8,3.1-11.2,7.5C-69.8,33-74.5,39-83.5,39s-13.7-6-17.5-10.8c-3.4-4.3-5.9-7.5-11.2-7.5c-5.4,0-7.8,3.1-11.2,7.5
		C-127.3,33-132,39-141,39c-9,0-13.7-6-17.5-10.8c-3.4-4.3-5.9-7.5-11.2-7.5c-5.4,0-7.8,3.1-11.2,7.5c-3.8,4.8-8.5,10.8-17.5,10.8
		c-9,0-13.7-6-17.5-10.8c-3.4-4.3-5.9-7.5-11.2-7.5c-5.4,0-7.8,3.1-11.2,7.5C-242.2,33-247,39-256,39c-9,0-13.7-6-17.5-10.8
		c-3.4-4.3-5.9-7.5-11.2-7.5c-5.4,0-7.8,3.1-11.2,7.5c-3.8,4.8-8.5,10.8-17.5,10.8s-13.7-6-17.5-10.8c-3.4-4.3-5.9-7.5-11.2-7.5
		c-5.4,0-7.8,3.1-11.2,7.5C-357.2,33-361.9,39-371,39c-9,0-13.7-6-17.5-10.8c-3.4-4.3-5.9-7.5-11.2-7.5s-7.8,3.1-11.2,7.5
		c-3.8,4.8-8.5,10.8-17.5,10.8c-9,0-13.7-6-17.5-10.8c-3.4-4.3-5.9-7.5-11.2-7.5c-5.4,0-7.8,3.1-11.2,7.5C-472.2,33-476.9,39-486,39
		c-9,0-13.7-6-17.5-10.8c-3.4-4.3-5.9-7.5-11.2-7.5c-5.4,0-7.8,3.1-11.2,7.5c-3.8,4.8-8.5,10.8-17.5,10.8s-13.7-6-17.5-10.8
		c-3.4-4.3-5.9-7.5-11.2-7.5c-5.4,0-7.8,3.1-11.2,7.5C-587.2,33-591.9,39-601,39s-13.7-6-17.5-10.8c-3.4-4.3-5.9-7.5-11.2-7.5
		s-7.8,3.1-11.2,7.5c-3.8,4.8-8.5,10.8-17.5,10.8c-9,0-13.7-6-17.5-10.8c-3.4-4.3-5.9-7.5-11.2-7.5c-5.4,0-7.8,3.1-11.2,7.5
		C-702.2,33-706.9,39-716,39c-9,0-13.7-6-17.5-10.8c-3.4-4.3-5.9-7.5-11.2-7.5s-7.8,3.1-11.2,7.5c-3.8,4.8-8.5,10.8-17.5,10.8
		c-9,0-13.7-6-17.5-10.8c-3.4-4.3-5.9-7.5-11.2-7.5c-5.4,0-7.8,3.1-11.2,7.5C-817.2,33-822,39-831,39c-9,0-13.7-6-17.5-10.8
		c-3.4-4.3-5.9-7.5-11.2-7.5c-5.4,0-7.8,3.1-11.2,7.5c-3.8,4.8-8.5,10.8-17.5,10.8c-9,0-13.7-6-17.5-10.8c-3.4-4.3-5.9-7.5-11.2-7.5
		c-5.4,0-7.8,3.1-11.2,7.5C-932.3,33-937,39-946,39V27.3c5.4,0,7.8-3.1,11.2-7.5C-931,15-926.3,9-917.2,9c9,0,13.7,6,17.5,10.8
		c3.4,4.3,5.9,7.5,11.2,7.5c5.4,0,7.8-3.1,11.2-7.5C-873.5,15-868.7,9-859.7,9c9,0,13.7,6,17.5,10.8c3.4,4.3,5.9,7.5,11.2,7.5
		s7.8-3.1,11.2-7.5C-815.9,15-811.2,9-802.2,9c9,0,13.7,6,17.5,10.8c3.4,4.3,5.9,7.5,11.2,7.5c5.4,0,7.8-3.1,11.2-7.5
		C-758.4,15-753.7,9-744.7,9c9,0,13.7,6,17.5,10.8c3.4,4.3,5.9,7.5,11.2,7.5c5.4,0,7.8-3.1,11.2-7.5C-700.9,15-696.2,9-687.2,9
		c9,0,13.7,6,17.5,10.8c3.4,4.3,5.9,7.5,11.2,7.5c5.4,0,7.8-3.1,11.2-7.5C-643.4,15-638.7,9-629.7,9c9,0,13.7,6,17.5,10.8
		c3.4,4.3,5.9,7.5,11.2,7.5c5.4,0,7.8-3.1,11.2-7.5C-585.9,15-581.2,9-572.2,9c9,0,13.7,6,17.5,10.8c3.4,4.3,5.9,7.5,11.2,7.5
		s7.8-3.1,11.2-7.5C-528.4,15-523.7,9-514.7,9c9,0,13.7,6,17.5,10.8c3.4,4.3,5.9,7.5,11.2,7.5c5.4,0,7.8-3.1,11.2-7.5
		C-470.9,15-466.2,9-457.2,9c9,0,13.7,6,17.5,10.8c3.4,4.3,5.9,7.5,11.2,7.5c5.4,0,7.8-3.1,11.2-7.5C-413.4,15-408.7,9-399.7,9
		c9,0,13.7,6,17.5,10.8c3.4,4.3,5.9,7.5,11.2,7.5c5.4,0,7.8-3.1,11.2-7.5C-355.9,15-351.2,9-342.2,9c9,0,13.7,6,17.5,10.8
		c3.4,4.3,5.9,7.5,11.2,7.5c5.4,0,7.8-3.1,11.2-7.5C-298.4,15-293.7,9-284.7,9s13.7,6,17.5,10.8c3.4,4.3,5.9,7.5,11.2,7.5
		c5.4,0,7.8-3.1,11.2-7.5C-240.9,15-236.2,9-227.2,9c9,0,13.7,6,17.5,10.8c3.4,4.3,5.9,7.5,11.2,7.5c5.4,0,7.8-3.1,11.2-7.5
		C-183.5,15-178.7,9-169.7,9c9,0,13.7,6,17.5,10.8c3.4,4.3,5.9,7.5,11.2,7.5c5.4,0,7.8-3.1,11.2-7.5C-126,15-121.3,9-112.2,9
		c9,0,13.7,6,17.5,10.8c3.4,4.3,5.9,7.5,11.2,7.5s7.8-3.1,11.2-7.5C-68.5,15-63.8,9-54.7,9c9,0,13.7,6,17.5,10.8
		c3.4,4.3,5.9,7.5,11.2,7.5s7.8-3.1,11.2-7.5C-11,15-6.3,9,2.8,9s13.7,6,17.5,10.8c3.4,4.3,5.9,7.5,11.2,7.5s7.8-3.1,11.2-7.5
		C46.5,15,51.2,9,60.3,9S74,15,77.8,19.8c3.4,4.3,5.9,7.5,11.2,7.5c5.4,0,7.8-3.1,11.2-7.5C104,15,108.7,9,117.8,9s13.7,6,17.5,10.8
		c3.4,4.3,5.9,7.5,11.2,7.5c5.4,0,7.8-3.1,11.2-7.5C161.5,15,166.2,9,175.3,9c9,0,13.7,6,17.5,10.8c3.4,4.3,5.9,7.5,11.2,7.5V39z"/>
</g>
</svg>
