<?xml version="1.0" encoding="utf-8"?><svg xmlns="http://www.w3.org/2000/svg"
    xmlns:xlink="http://www.w3.org/1999/xlink">
    <symbol viewBox="0 0 50 26" id="arrow" xmlns="http://www.w3.org/2000/svg">
        <path d="M0 11h42.34l-8.17-8.17L37 0l13 13-13 13-2.83-2.82L42.34 15H0z" />
    </symbol>
    <symbol id="cart" viewBox="264.2 371 20.3 18.8" xml:space="preserve" xmlns="http://www.w3.org/2000/svg">
        <path
            d="M283.7 378.2h-3.2l-3.4-6.8c-.2-.4-.6-.5-1-.3s-.5.6-.3 1l3.1 6.1h-9.1l3.1-6.1c.2-.4 0-.8-.3-1-.4-.2-.8 0-1 .3l-3.4 6.8H265c-.4 0-.8.3-.8.8 0 .4.3.8.8.8h.2l.9 3c-.2.1-.3.3-.3.6 0 .4.3.7.7.7l1.7 5.8h12.7l1.7-5.8c.4 0 .7-.3.7-.7 0-.2-.1-.5-.3-.6l.9-3h.2c.4 0 .8-.3.8-.8-.4-.5-.7-.8-1.2-.8zm-4.1 10.1h-10.4L268 384h12.9l-1.3 4.3zm1.6-5.8h-13.7l-.8-2.8H282l-.8 2.8z" />
    </symbol>
    <symbol id="fb" viewBox="56.52 50 14.96 27.72" xml:space="preserve" xmlns="http://www.w3.org/2000/svg">
        <path
            d="M68.18 55.19c1.03.03 1.99 0 2.68-.3.39-.82.56-1.85.62-2.99-.19-.01-.06-.34-.21-.4-.03-.2-.28-.19-.31-.4-.28-.17-.46-.42-.72-.6-.73-.16-1.44-.33-2.16-.5-.85.04-1.89-.1-2.58.1-2.62-.04-4 1.12-5.26 2.39-.02.08 0 .2-.1.2-.57 1.59-.12 3.62-.2 5.58.1.44.11.96.2 1.39-1 .3-2.21.39-3.4.5-.32.32-.18 1.09-.21 1.69.08.58.28 1.06.41 1.59.21.19.6.4.83.5.06.03.07.08.1.1.51.27 1.45.01 2.27.1-.14 1.98.26 3.92 0 5.68.01.33.29.38.21.8 0 .96-.07 1.99.21 2.69-.29.46-.5.98-.42 1.79.12.02.11.16.1.3-.07.47.64.17.52.7.16.46-.43.18-.41.5v.9c.53.29 1.46.18 2.27.2.91-.42 2.19-.48 2.79-1.2.46.24.92-.01 1.24-.2-.02-.32.27-.33.21-.7 0-.33-.17-.5-.1-.9v-2.89c-.21-2.29-.05-4.94-.31-7.18.89-.11 1.92-.08 2.58-.4.36-.45.38-1.23.52-1.89.18-.23.22-.58.21-1 .19-.21.07-.73.1-1.1-.14-.6-.17-1.3-.83-1.4-.88-.24-2.04.6-2.99.3.05-1.13-.29-2.34 0-3.39.72-.14 1.42-.36 2.14-.56zm-3.82 4.78c.12.25.25.49.41.7.08.02.2 0 .21.1 1.19.06 2.2-.07 3.1-.3 0 1-.27 1.73-.52 2.49-.66.04-1.47.3-1.96.2-.28.17-.37.51-.62.7-.05.44.14.5 0 .8-.2.14-.05.61-.21.8v1.5c.08.28-.15.26-.1.5v3.49c-.08.28.15.26.1.5v2.99c.06.27-.13.79.1.9-.07.36-.41-.02-.82.1-.53.12-.93.37-1.55.4.12-.35.32-.62.31-1.1.05-.38-.37-.31-.52-.5.19-.64.56-1.12.72-1.79.2-.51.71-1.3.31-1.79-.52-.11-.52.29-.83.4-.02.08 0 .2-.1.2-.02.08 0 .2-.1.2.01.12-.15.06 0 0 .02-.08 0-.2.1-.2.02-.08 0-.2.1-.2v-.3c.37-.58.67-1.21.83-1.99.19-.28.28-.66.41-1 .16-.26.34-.87.1-1.2-.52.03-.8.29-.93.7-.32-.19.16-.43.1-.7.14-.23.17-.57.31-.8.2-.41.56-1.3 0-1.6-.44-.02-.61.21-.72.5-.21.19-.43.38-.52.7-.37-.07-.14-.73-.21-1.1-.07-.52.12-.9 0-1.2-.56-.8-2.03-.11-3.2-.3-.11-.31-.22-.98-.1-1.2 1.04-.09 2.48.2 3.2-.2.02-.08 0-.2.1-.2.09-.72-.27-1-.51-1.4.23-.81.04-2.02.1-2.99.23-.14.33-.41.51-.6.11-.95.67-1.48.72-2.49-.27 0-.61-.05-.62.2-.3-.11-.38.48-.51.2-.11-.54.25-.63.31-1 .6-.42 1.21-.82 1.86-1.2 1.74-.24 4.65-.45 6.09.2.05.62-.29.85-.21 1.5h-1.55c-1.09.24-1.99.67-2.99 1-.24.07-.28.33-.52.4-.04.4-.22.65-.31 1-.05 1.43.16 2.59.13 3.98z"
            id="cfacebook" />
    </symbol>
    <symbol id="html" xml:space="preserve" xmlns="http://www.w3.org/2000/svg">
        <svg xmlns="http://www.w3.org/2000/svg" viewBox="0 0 154 194.84">
            <g>
                <g>
                    <path stroke="#231f20" stroke-miterlimit="10"
                        d="M77.8.59,77,.5.5,8.52V148.74L77,194.26l76.5-45.52V8.52Zm66.7,142.62L78,182.78,11.5,143.21V85.66l66,39.28.11,7.45L31.5,104.94l-.07,7L77.5,139.65l.11,7.36L31.5,119.58l-.07,7,45.82,27.54,46.25-27.68v-7l1,0V97L144.5,85Zm-.42-66.11L125.85,87.85l-8.42,5L76.5,68.92v7l35,20.4-.3.18-.74.44-4.88,2.87L76.5,82.92v7l23.08,13.29-5.28,3.53-.13.08-17.67-10v7l11.8,6.53L77,117.08,11,77.82,77.5,38.06h0Zm-.58-7-67-39.5v0h1v-.2l-67,39.89V17.33l66.5-7,66.5,7Z" />
                </g>
            </g>
        </svg>
    </symbol>
    <symbol viewBox="0 0 21.77 21.33" id="inst" xmlns="http://www.w3.org/2000/svg">
        <defs>
            <clipPath id="ea">
                <path d="M0 0h21.77v21.328H0zm0 0" />
            </clipPath>
        </defs>
        <g clip-path="url(#ea)">
            <path
                d="M13.188 7.664c.21.117.44.215.605.379.086.219.246.363.379.531.058.778.18 1.492.152 2.352-.254.097-.437.27-.68.383-.78-.008-1.359-.211-1.898-.457-.172-.258-.355-.504-.535-.758V9.03c.172-.183.32-.39.457-.61.23-.124.508-.198.457-.605-.04-.062-.082-.125-.078-.23.16.047.246.16.379.23.324.016.41-.199.761-.152m1.137 3.793c-.234-.055-.144.211-.379.152.07-.156.121-.336.23-.453.134.02.173.13.15.301m-2.2 2.582c.035-.11.066.008.152 0-.02.098-.152.078-.152 0m-.758-2.883c-.043-.039.051-.097.074-.078.04.04-.054.098-.074.078m-.383-3.949c-.203.258.043.578.079.836-.305-.04-.575-.887-.079-.836M9.316 9.332c.016-.086.075-.043.075 0-.016.086-.075.043-.075 0m-.457 2.05c.04-.116.079-.003.079.075-.043.117-.083.008-.079-.074m-.074-.305c-.113-.062-.11-.242-.152-.379.254-.078.117.239.152.38M12.2 6.75c-.222-.23-.676-.23-.988-.379-.695-.035-1.219.094-1.746.23-.3.149-.606.305-.91.454-.262.168-.442.418-.758.53-.207.228-.352.513-.684.61-.004.223-.172.282-.304.38-.09.113-.094.312-.227.378-.008.121.035.29-.074.305.11 1.512.289 2.945.68 4.176.289.625.976.843 1.445 1.289.586.297 1.328.445 2.125.53.277-.05.55-.105.91-.073a5.098 5.098 0 002.809-1.442c.101-.281.253-.508.457-.683-.254-.672.293-1.098.457-1.598 0-1.344-.204-2.48-.61-3.414-.254-.578-.922-.754-1.367-1.14-.059-.016-.148 0-.148-.075-.27-.133-.735-.234-1.067-.078m1.14-1.82c-.112.047.005.093 0 0m-2.808-.606c.02.02.114-.039.074-.078-.02-.02-.113.035-.074.078m.531-.383c-.316-.07-.015.23 0 0m2.278.989c.531-.047.746-.414 1.215-.532.28-.296.78-.378.988-.757-.563.023-.766.398-1.219.53-.281.298-.75.411-.984.759m-2.277-.989a2.03 2.03 0 00.835-.605 2.015 2.015 0 00-.835.605m.835-.605c.063.016.07-.031.075-.074-.067-.016-.07.027-.075.074m.075-.074c.066.011.07-.032.074-.078-.063-.016-.07.03-.074.078m.074-.078c.113-.047-.004-.09 0 0m.683-.61c-.109.047.008.094 0 0m.684.836c.727-.156 1.18-.59 1.746-.91-.437.02-.59.32-.988.379-.215.219-.598.262-.758.531m1.746-.91c.113-.047-.008-.09 0 0m-1.062-.605c-.528.152-1.016.347-1.368.68.485-.196 1.063-.305 1.368-.68m0 0c.109-.047-.008-.094 0 0m5.847 3.718c-.64-.12-1.234-.285-1.898-.379.07-.332.797-.011.988-.226.383-.223.293-.922.3-1.52.036-.347.118-.644.08-1.062-.403-.953-1.786-.422-2.888-.457-.226.718-.468 1.8-.304 2.656.172.492 1.027.293 1.52.457-.141.332-.688.059-.99.074-.296-.082-.706-.05-.983-.148-2.286.074-4.286.004-6.532.148.117-1.246.063-2.465-.074-3.64h3.113c-.347.363-.914.504-1.293.832-.441.246-.859.507-1.136.914.246.133.535-.246.757-.38.356-.073.48-.382.836-.456.422-.438 1.094-.625 1.668-.91.38-.024.7.011.989.074 1.28.008 2.457.129 3.797.074.613.149 1.449.07 1.972.305.106.297.23.582.305.914.008.992-.149 1.824-.227 2.73m-.379 11.16c-.109.954-.16 1.97-.382 2.809-2.887.121-6.016.004-8.883.152-.2.047-.27-.03-.227-.226-.254 0-.258.246-.531.226.203-.336.437-.898.152-1.289-.797.012-.797.82-1.14 1.29-.684-.051-1.137.128-1.82.074.18-.704.75-1.02.91-1.743-.395-.55-.989.137-1.215.454-.203.48-.555.808-.758 1.289h-.988c.238-.465.488-.922.761-1.364.168-.511.625-.742.68-1.367-.156-.281-.418-.031-.68 0-.125.18-.273.332-.383.531-.23.375-.5.711-.683 1.137-.18.211-.336.004-.527.23-.391.27-.582.735-.989.985-.175-.059.035-.356.153-.379.046-.18-.098-.55.074-.605.062-.368.21-.649.379-.915.117-.742.523-1.199.683-1.898-.558.102-.672.645-.988.988-.21.446-.539.774-.684 1.293-.171-.133-.027-.582-.074-.836.121-.586.297-1.12.38-1.746.132-.222.171-.535.23-.836.168-.207.046-.609-.079-.761-.226.027-.374.132-.457.304-.19-.03-.19.508-.3.305-.047-2.586-.453-4.813-.457-7.438.027-.332-.184-.425-.227-.687a73.57 73.57 0 014.781.23c-.09.137-.199.258-.3.38-.145.07-.227.171-.383.304-.602 1.652-.973 3.984-.606 6.149.227.582.59 1.03.989 1.44.906.485 1.632 1.15 2.503 1.673 1.7.36 3.84.367 5.543 0 .235-.121.48-.227.684-.38 1.363-1.241 2.75-2.46 2.961-4.858V10.32c-.2-1.597-.691-2.906-1.75-3.644.332-.219 1.102.043 1.672.074.223.016.45.016.683 0 .407-.023.93-.055 1.442 0 .144.188.117.547.23.762-.062 1.683-.195 3.3-.152 5.086.102.457.125.988.227 1.441-.09.977-.235 1.895-.454 2.734M1.344 5.688v-1.59a7.96 7.96 0 01.61-.535c.292.492.175 1.39.452 1.898-.277.156-.75.11-1.062.226M1.27 2.426c.222-.207.449-.41.683-.61-.023-.12.07-.129.074-.226h.227c.101.383-.258.297-.3.531.019.121-.075.129-.079.227.02.336.121.59.078.988-.273.008-.277.281-.61.227.024-.426-.132-.672-.073-1.137m.453-.762c-.036.223-.325.18-.38.379-.214-.168.083-.465.38-.379m.988-.074c.027.258-.441.32-.379 0zm.684 3.719c.148-.028.109.347-.079.23a.395.395 0 00.079-.23m.226-3.72c.035.157-.05.2-.074.306-.176.023-.086-.22-.23-.23.023-.103.19-.063.304-.075m0 1.137c-.262.054-.273-.266-.152-.38.261-.054.273.266.152.38m-.226 2.05c.074-.308.03-.3.074-.68.23.012.261.766-.074.68m.152-.988c-.207.023-.219-.531-.078-.605.328.007.25.5.078.605m.531 0c.004-.105.012-.21-.078-.227-.07-.734.129-1.414 0-1.972.25-.156.77-.043 1.14-.078v1.14a.487.487 0 01-.378.075c-.055.28.324.132.379.304.007.856-.059 1.778.152 2.43-.566-.059-.906.105-1.441.074.093-.61-.02-1.433.527-1.594-.008-.14-.254-.046-.3-.152m2.35 1.219c.176-.028.087.219.231.226-.012.192-.285.18-.383.075.04-.11.114-.192.153-.301m.152-.23c-.059.14-.082-.044-.074-.153.054-.137.078.047.074.152m0-1.367c-.133-.066-.168-.234-.152-.453.133.07.168.238.152.453M6.43 1.59c.09-.012.133.015.152.074.18.254.008.684-.074.914-.176-.18-.028-.683-.078-.988m.683 1.594c-.117-.262-.066-.692-.074-1.063-.008-.285.277-.277.3-.531 0-.074-.089-.059-.152-.074.13-.149.704-.098.836 0 .133.535-.355.453-.53.68.01.167.323.034.456.077.031.852-.058 1.497 0 2.204h-.457c-.004.23.23.222.457.226-.058.285.094.363.074.606-.226.152-.714.043-1.062.078-.102-.594.238-1.375.152-2.203m1.672 2.734c.758-.152 1.48-.344 2.426-.305.71.074 1.289.282 1.898.453.118.184-.242.547.157.684v.078c.058.016.148 0 .148.074.445.035.793.168 1.063.38.453.054.539.476 1.14.382-.09.211-.086.524-.074.832.324 1.184.473 2.813.3 4.254-.163.164-.214.441-.3.684-.313.32-.484.785-.836 1.062a1.09 1.09 0 01-.457.531c-.117.215-.207.453-.457.532-.297.164-.578.011-.832-.079-.445.165-.906.313-1.215.61-.816-.098-1.648-.176-2.43-.305-.242-.137-.488-.273-.836-.305a1.989 1.989 0 00-.835-.453c-.102-.129-.336-.12-.457-.23-.196-.027-.227-.227-.454-.227-.117-.414-.441-.62-.53-1.062-.227-.332-.31-.805-.458-1.215-.043-1.434.094-2.691.379-3.797.348-.59.781-1.094 1.14-1.668.247.02.364-.09.38-.305.304.051.433-.074.683-.074.254-.074.266-.39.457-.531m12.98 6.223c-.011-2.395-.343-4.79-.304-7.133a35.11 35.11 0 00-.152-2.281c-.102-.297-.11-.7-.149-1.063-.262-.168-.223-.637-.457-.836-.422-.23-1.203-.11-1.746-.226-.656-.024-1.254-.114-1.898-.153-1.934-.097-3.973-.074-5.997-.074-2 0-3.953-.145-5.695-.379H3.164C3.07 0 3.062.094 2.937.07 2.34.105 1.863.262 1.345.375 1.133.492.922.609.66.68.523.87.148.824.055 1.059c-.188.21.183.453 0 .605v.914c.172.129.027.578.074.832v.988C.113 5.68.262 6.797.207 8.118c.465 2.765.371 6.538.074 9.413.156.578.364 1.106.453 1.746.258.48.336 1.133.684 1.52.504.207 1.234.187 1.898.23.383.098.668.293 1.141.301 2.844-.207 5.496-.152 8.426-.226 2.703.242 5.8.187 8.277-.227.195-.137.13-.531.227-.762-.055-.383.207-.449.226-.758.133-2.394.168-4.789.153-7.214" />
        </g>
    </symbol>
    <symbol id="logo" viewBox="0 0 148.1 72.7" xml:space="preserve" xmlns="http://www.w3.org/2000/svg">
        <g id="fLayer_2">
            <path
                d="M143.2 31.4c-1.5 1.1-3.1 1.9-4.7 2.8 0-1.7-.1-3.5-.6-5.1.1-.3.1-.7.1-1 .4-3 .7-7.1-2-9.2-.3-.3-1.2 0-1.9.3-.2-.2-.3-.3-.5-.4-.1-.2-.2-.5-.2-.7 0-.1-.2-.2-.4-.2.3-.4.3-.8-.4-1.1-.4-.2-.8-.3-1.1-.4-.1-.1-.1-.1-.2-.1-.9-.3-1.9-.5-2.9-.7.1-.3.4-.8.6-1 .1-.2.3-.3.4-.4l.2-.2s.1 0 .1-.1l.1-.1c.4-.3.8-.9.2-1.2-.6-.3-1.5-.1-2 .2-.9.7-1.6 1.4-2.1 2.4-2-.2-4-.2-6.1-.1.1-.1.1-.2.1-.2.2-.6-.9-.5-1.2-.5-1.6.2-3.1.4-4.7.6 1.4-3.8 3.1-8.6 1-12.3-1.2-2.1-3.9-2.6-6.1-2.7-2.4-.1-4.9.5-7 1.6-4.8 2.6-7.1 7.7-8.2 13.1-.5-.7-2.3-.4-2.6.5-.1.3-.2.6-.3 1-.2.2-.3.4-.3.6v.2h-.2c0-.1 0-.2.1-.3.1-.1.2-.2.3-.4.6-2.3 1.2-4.6 1.9-6.8.3-.8-2.5-.4-2.8.4-.4 1.2-.8 2.4-1.1 3.6-.2.1-.4.2-.4.3v.1c-.1-.1-.3-.2-.5-.2v-1c0-.4-2.8 0-2.8.8v1.6c-.2.1-.3.2-.5.3l-.2.2c-.1.1-.1.2-.1.2v.1l-.1.1c-.1.1-.2.3 0 .5s.5.2.7.2h.1v.5h-.7l-.4-.1c0-.4-.7-.5-1.4-.3v-.1c-.1-.6-.2-1.2-.2-1.8.2-.1.5-.2.7-.3.2-.1.3-.2.3-.4V14c0-.2-.4-.2-.5-.2h-.6c-.1-1.4-.1-2.7-.1-4 0-.8-2.8-.3-2.8.8 0 1.8 0 3.6.2 5.3h-.3v-1.5c0-1-1.3-1.2-2.1-.8.3-.3.5-.6.4-1-.4-1.4-.8-2.8-1-4.3-.2-1.4-3-.7-2.8.8.2 1.5.6 2.9 1 4.3.2.8 1.3.9 2.1.5-.2.2-.4.5-.4.8v.6c-.3-.3-.5-.3-.9-.3-1.1 0-1.7.9-1.4 1.5-.2 0-.3-.1-.5-.1-.4-1.2-.7-2.5-.7-3.8 0-.9-1.3-1-2.1-.7v-.2c-.4-.8-.6-1.7-.8-2.5-.3-1.3-3.2-.6-2.8.8.2.6.3 1.3.5 1.9h-.1c-.3.1-.6.2-.9.4-.8.1-1.8.6-1.8 1.2.1.5.1 1 .2 1.4-.4.1-1 .1-1.5.2-.3-.8-.5-1.6-.6-2.4-.1-.9-1.6-.9-2.3-.3-.8-2.1-1.8-4-3.1-5.8-2.7-3.4-7.2-4.6-11.3-3.7-1.9.4-3.7 1.2-5 2.6-1.2 1.4-1.4 3.1-1.2 4.8.2 1.5.6 4 1.6 6-.4 0-.7 0-.9.1-.3.1-.6.2-.8.4-1.9 0-3.9 0-5.8-.1-4.2-.2-8.3-.9-12.5-.7-.9 0-1.5.7-1.5 1.3-1 .5-1.7 1.3-2.1 2.3-1.7-1.1-3.5-2.3-5.3-3.2-.7-.4-3.3.7-2.3 1.2 1.8.9 3.6 2.1 5.3 3.2.5.3 1.3.1 1.8-.1 0 0 .1 0 .2-.1-.3 1.4-.2 3.1.2 4.5 0 .1.1.2.2.3v1.2c-.4.2-.7.5-.8.8-.2 1.4-.3 2.8-.3 4.2-.3.2-.5.5-.5.8-.2 3.3 0 6.7.5 10 .2 2.7.7 5.3 1.2 8 .1.4.1.8.2 1.2-.3 1.1-.4 2.4-.2 3.5-.9.2-1.7.9-1.2 1.6.8 1.2 1.6 2 2.6 2.6-.6-.1-1.4.1-1.9.6-.8.8-1.7 1.5-2.5 2.3-.4.4-.3.9.3 1.1.7.2 1.5-.1 2-.5.8-.8 1.7-1.5 2.5-2.3.2-.2.3-.5.2-.7 3.2 1.7 7.2 1.3 11.1.9-.9 1.6-1.5 3.3-2.2 5-.3.7 2.5.4 2.8-.4.6-1.7 1.2-3.3 2.1-4.9 3.7.1 7.5.1 11.2.1.1.2.4.3.7.3 3.3.3 6.5-.1 9.7-.7 4.8-.2 9.6-.5 14.4-.8 7.5-.2 15.1-.3 22.6-.3l.3.3c.3.3.6.3 1 .3h.2c.7 0 1.4.1 2.1.1.2 0 .3.1.6 0 .8.1 1.6.1 2.3.2.2.2.5.3.8.4 3.8.2 7.6.5 11.4.7.1.2.5.3.8.3 7.1.1 15.3 2.8 21.6-1.7.5-.4.3-.9-.3-1h-.3c1.2-2.8 2.2-5.6 2.9-8.6.4-.2.6-.5.6-.9 0-1.2.2-2.4.4-3.6.2-.9.3-1.8.4-2.7.4-2.2.8-4.4 1-6.5 2.3-1.1 4.5-2.3 6.6-3.8 1.6-1.1-.8-1.8-1.8-1.1zm-55.4-15l-.1.1c.1-.3.1-.6.2-.9h.1c0 .2-.1.5-.2.8z" />
            <path
                d="M63.3 12.6c.1.2.6.2.8.2.4 0 .8-.1 1.1-.2.4-.2 1.1-.6.8-1.1-.4-.6-.6-1.2-1-1.8-.1-.2-.6-.2-.8-.2-.4 0-.8.1-1.1.2-.4.2-1.1.6-.8 1.1.3.6.6 1.3 1 1.8zM20.7 10.9c.2.6 1.1.6 1.6.5.5-.1 1.4-.6 1.2-1.3-.2-.6-.4-1.3-.9-1.8s-1.3-.4-1.9-.2c-.4.2-1.2.8-.7 1.3.4.6.5.9.7 1.5zM30.7 13.9c.8 0 3.1-1.3 1.2-1.3-.9 0-3.1 1.3-1.2 1.3zM122.6 12.3c.3.1.7 0 1.1-.1.3-.1.7-.2.9-.5.4-.4.7-.7 1-1.2.1-.2.2-.4 0-.6-.2-.2-.5-.2-.8-.3-.4 0-.8.1-1.1.2-.3.1-.6.3-.8.6-.1.2-.2.4-.4.5l-.2.2c-.2.2-.3.4-.3.6.1.4.3.5.6.6zM135.9 17.7c.6-.1 1.4-.2 1.9-.7 1.3-1.1 2.6-2.2 3.6-3.6.3-.4-1-.2-1.1-.2-.5.1-1.3.3-1.7.7-.9 1.3-2.2 2.3-3.4 3.4-.5.4.4.4.7.4zM146.7 44.8h-4.9c-.6 0-1.5.5-1.6 1.1-.1.7.8.9 1.3.9h4.9c.6 0 1.5-.5 1.6-1.1.1-.7-.7-.9-1.3-.9zM57 60.8c-.5.1-1.4.3-1.6.8-.5 1.3-1 2.6-1.4 3.9-.2.7 2.6.3 2.8-.5.4-1.3.8-2.6 1.4-3.9.2-.5-1-.3-1.2-.3zM61.6 63.4c-.3 0-.7.1-1 .2-.3.1-.7.2-1 .4-.1.1-.3.2-.3.4v.3c0 .1-.1.2-.1.3-.1.1-.1.2 0 .3.2.1.5.1.7.1.4 0 .7-.1 1.1-.3.2-.1.6-.2.8-.4.1-.2.2-.3.3-.5v-.5c0-.3-.4-.3-.5-.3zM116.7 67.1c-.4-.7-3 .3-2.8.8.8 1.6 1.9 3.1 2.9 4.7.4.7 3-.4 2.8-.8-1-1.6-2.1-3.1-2.9-4.7zM120.7 64.7c-.3-.6-1.1-.6-1.6-.4-.4.1-1.5.6-1.2 1.2.4.8.8 1.6 1.2 2.3.3.6 1.1.6 1.6.4.4-.1 1.5-.6 1.2-1.2-.4-.7-.8-1.5-1.2-2.3zM5.7 43.1c-1.5.4-3 .6-4.5 1-.5.1-1.3.6-1.2 1.3.2.7 1.1.7 1.7.6 1.5-.4 3-.6 4.5-1 .5-.1 1.3-.7 1.2-1.3-.3-.7-1.2-.7-1.7-.6z" />
        </g>
        <g id="fLayer_1_1_">
            <path fill="currentColor"
                d="M43.8 40.1c-.1-2.7-.5-5.4-.5-8.1 0-2.2.4-4.5-.4-6.6 0-.2.1-.5.1-.7.2-1.1-3.3-.5-3.8.5-.3.3-.5.6-.4 1 0 .1.1.2.1.3-.7 3.2-1.6 6.4-2.6 9.5-.4 1.2-.9 2.4-1.3 3.6-.6-1.1-1.2-2.2-1.7-3.4-1.4-3.5-2.6-7-4.3-10.3.2-1.5-3.2-1.4-3.9 0-.8 1.7-.7 3.4-.4 5.3.3 2.1.4 4.1.4 6.2 0 4 .4 8 .4 12-.4.4-.5.9-.1 1.4l.6.6c.9.7 3.5.1 3.5-1.3 0-4.2-.3-8.3-.4-12.5v-1.2c.1.1.1.3.2.4.6 1.6 1.3 3.2 2.2 4.7.9 1.5 1.3 3.1 1.8 4.7-.2.2-.3.5-.2.7 0 .2.1.3.3.4.6.6 1.9.3 2.5 0 .3-.1.6-.3.8-.4.3-.2.9-.7.7-1.2 0-.1-.1-.2-.1-.3.5-1.3.7-2.6 1-4 .3-1.4.8-2.8 1.3-4.2.1.6.1 1.2.2 1.9.2 2.6 0 5.1 0 7.7 0 .9.1 1.6.2 2.5.1.3.4 1.8.3 1.9-.6.6-.4 1.3.4 1.4.9.2 2.1-.1 2.8-.7 1.2-1.1.6-2.9.4-4.3-.6-2.4-.1-5.1-.1-7.5zM52.2 40.8c-.1-2-.8-3.9-.8-5.9 0-2.3.2-4.6-.2-6.9-.1-.7-4.1.1-4 1.1.3 2.1.2 4.3.2 6.4 0 2.1.5 3.9.7 6 .3 2.1-.1 4.2.1 6.3.1 1 .8 2.8.1 3.6-.4.5 1.5.3 1.6.3.8-.1 1.8-.4 2.3-1 .7-.8.2-2.4.1-3.4-.2-2.3 0-4.4-.1-6.5zM68.7 37.4c-2.1-2.8-5.9-.8-8.6-1.6-1.4-.4-1.4-2.3-1.4-3.4 0-1.4-.1-2.8-.3-4.2-.1-1.1 0-2.1.8-2.9.1-.1.9-.3.8-.3.4-.1.7-.1 1.1-.1 1.6-.1 4.7.2 4.1 2.5-.3 1 3.6.4 3.9-.6 1.2-4.6-7.4-3.7-9.8-3.1-2.2.6-4.7 1.9-4.8 4.4-.1 1.2.3 2.4.3 3.6.1 1.4-.2 2.8.3 4.2 1.1 3 5.6 1.6 7.8 1.8 3.9.3 2.7 5.5 2.8 8 0 1.3 1.2 3.5.2 4.5-.6.7-2 .7-2.8.8-.8.1-2.2.3-2.8-.5-1-1.4.1-3.8-.1-5.5-.2-1-4.2-.1-4 1 .3 2.7-1.4 6.2 2.4 6.7 2.5.3 5.2-.2 7.6-.9 1.2-.4 2.3-1 3.3-1.8 1-.9.7-2.4.4-3.6-.7-3 .7-6.4-1.2-9zM86.2 37.2c-.1-3.8-.7-7.6-.7-11.4 0-2-4-1.3-4 .3 0 3.6.5 7.2.7 10.9v.2c-2 0-3.9.2-5.9.2.2-4.7-.6-9.3-.4-14 0-.6-3.9-.1-4 1.1-.2 4.5.6 9 .5 13.5-.1 2.2-.2 4.3-.3 6.5 0 1.1.2 2.2.3 3.3.1 1 .5 2.4.2 3.3-.2.8 3.6.3 3.9-.7.5-1.8-.2-4.1-.4-5.9-.2-1.7 0-3.5.1-5.3 2-.1 4.1-.3 6.1 0l.3 4.2c.1 1.2.2 2.3.2 3.5 0 1 .1 2.5-.2 3.5-.8 2.1 3.2 1.9 3.8.4.7-1.9.5-4.2.4-6.2-.2-2.4-.6-4.9-.6-7.4zM103.2 41.8c-.9-2.8-2.4-5.2-3.6-7.9 1-2 2-3.9 3-5.9.8-1.8 1.5-3.9 3.1-5.1.6-.5.6-.9-.3-1-.9-.1-2.1.2-2.8.7-1.5 1.2-2.4 2.6-3.2 4.3-1 2.1-1.9 4.1-3 6.1-.1.1-.2.3-.2.4-.5.3-.8.8-.6 1.3-.8 1.6-1.6 3.1-2.5 4.7-.3-5.6-1-11.2-1.2-16.8 0-1.3-4-.5-4 1.1.2 6.9 1.2 13.8 1.3 20.8v.1c-.3.3-.2.5.1.6 0 1.8-.1 3.5-.2 5.3-.5.8.5 1.1 1.1 1.1h.1c.7 0 2.6-.4 2.7-1.4.2-2.1.3-4.2.2-6.3 1.6-1.7 2.9-3.7 4.1-5.7.8 1.5 1.5 3 2 4.6.9 2.8 2.3 5.3 3.2 8.1.5 1.8 4.5.7 4-1.1-.9-2.7-2.3-5.3-3.3-8zM127 37.1c-.2-.8-1.4-.9-2.3-.8v-1c-.1-2.7-.2-5.4-.4-8.1-.2-2.5-1.6-3.4-4-3.3-2.4.1-5.3.5-7.6 1.4-2.6 1-4.1 3-4.6 5.7-.6 3 .2 6.3.4 9.3.2 3.5.1 7.1.1 10.6 0 .6 4 0 4-1.1v-8.4c0-.8-.1-1.6-.1-2.5 1.4-.6 3.7 0 5.1.1 1.1.1 2.2-.2 3.3-.3 0 2.3.1 4.7.2 7 0 1.2.5 3.6-.4 4.6-.4.5 1.5.3 1.6.3.8-.1 1.8-.4 2.3-1.1 1-1.1.5-3.8.4-5.2-.1-1.9-.1-3.9-.1-5.8 1 .2 2.3-.6 2.1-1.4zm-14.8-.2c-.1-1.3-.2-2.5-.3-3.8-.2-2.4.1-5.6 2.3-7.1.6-.4 1.7-.3 2.4-.4 1-.2 2-.4 2.9.2 1.2.8.9 3.7.9 4.9 0 2 .2 4 .3 6.1-.6.1-1.1.1-1.7.1-2.3-.1-4.6-.4-6.8 0zM48.8 25.2c.5-.1 1.1-.2 1.5-.5.1-.1.2-.1.3-.2.5-.3 1-.8.7-1.4-.5-1.1-.4-2.3-.4-3.4 0-1-1-1.3-1.8-1.2-.7.1-2.2.6-2.2 1.5 0 1-.1 2 .1 3 0 .1-.1.2-.1.4-.1.2 0 .4.1.6v.4c.1.2.2.4.4.5.4.3.9.3 1.4.3z" />
        </g>
        <path
            d="M121.9 57.8c-1.9-.5-4-.6-5.9-.7-1.9-.2-3.9-.4-5.9-.5-2 0-4 0-6 .1l-6 .3c-7.9.3-15.8.2-23.7.1-7.9-.1-15.8-.4-23.8-.4-4 0-8 .1-12 .2-2 .3-3.9.5-6 .8-2 .4-3.8.8-5.8 1 2 .3 4.1.3 6 .3 1.9 0 3.9.1 5.9.2 3.9-.2 7.9-.2 11.8-.2 7.9 0 15.8.3 23.7.4 7.9.1 15.9.2 23.9-.1l6-.2c1.9-.1 3.9-.1 5.9-.1 2-.1 3.9-.3 6-.5 2-.2 3.9-.6 5.9-.5h.1v-.4c-.1 0-.1.1-.1.2z" />
    </symbol>
    <symbol viewBox="0 0 33.105 32.443" id="phone" xmlns="http://www.w3.org/2000/svg">
        <defs>
            <clipPath id="ga" clipPathUnits="userSpaceOnUse">
                <path d="M0 24.333h24.829V0H0z" />
            </clipPath>
        </defs>
        <g clip-path="url(#ga)" transform="matrix(1.33333 0 0 -1.33333 0 32.443)">
            <path
                d="M17.32 0h-1.114C11.302.58 7.709 2.857 5.095 5.772 2.473 8.695.402 12.458 0 17.516v1.358c.09.92.544 1.549 1.067 2.085.65.666 1.63 1.522 2.522 1.554.659.022 1.78-.451 2.232-1.066.388-.53.595-1.591.775-2.379.185-.797.6-1.949.485-2.716-.176-1.196-1.764-1.704-2.231-2.572 1.55-3.721 4.089-6.456 7.472-8.345.847.464 1.595 1.864 2.767 1.891.427.012.97-.209 1.406-.34.476-.142.89-.326 1.31-.484.705-.266 1.957-.621 2.378-1.213.433-.61.68-1.608.58-2.231C20.572 1.824 18.539.455 17.322 0M12.529 22.805c5.949 0 10.77-4.822 10.77-10.771h1.53c0 6.792-5.506 12.299-12.3 12.299z" />
            <path
                d="M12.529 15.005v-1.552a1.42 1.42 0 001.42-1.42h1.554a2.972 2.972 0 01-2.974 2.972M12.529 18.086a6.054 6.054 0 006.056-6.054h1.588a7.642 7.642 0 01-7.644 7.641z" />
        </g>
    </symbol>
    <symbol viewBox="0 0 23.466 23.465" id="search" xmlns="http://www.w3.org/2000/svg">
        <defs>
            <clipPath id="ha" clipPathUnits="userSpaceOnUse">
                <path d="M0 17.599h17.6V0H0z" />
            </clipPath>
        </defs>
        <g clip-path="url(#ha)" transform="matrix(1.33333 0 0 -1.33333 0 23.465)">
            <path
                d="M2.198 9.9a5.5 5.5 0 1011 0 5.5 5.5 0 00-5.5-5.5 5.499 5.499 0 00-5.5 5.5M17.27 1.87l-3.415 3.414A7.67 7.67 0 0115.4 9.9a7.698 7.698 0 01-7.7 7.698A7.697 7.697 0 010 9.9c0-4.253 3.445-7.7 7.698-7.7 1.734 0 3.326.58 4.613 1.546L15.728.33c.203-.202.418-.33.772-.33a1.1 1.1 0 011.1 1.1c0 .24-.062.498-.33.77" />
        </g>
    </symbol>
    <symbol viewBox="0 0 0 0" id="sprite" xmlns="http://www.w3.org/2000/svg" />
    <symbol viewBox="0 0 31.325 26.891" id="tw" xmlns="http://www.w3.org/2000/svg">
        <defs>
            <clipPath id="ja" clipPathUnits="userSpaceOnUse">
                <path d="M0 20.168h23.494V0H0z" />
            </clipPath>
        </defs>
        <g clip-path="url(#ja)" transform="matrix(1.33333 0 0 -1.33333 0 26.89)">
            <path
                d="M14.857 14.602c.163-.135.284-.31.52-.37.1-.222.313-.328.592-.37.047.15.346.048.37.221.174.023.166.23.296.297-.017.55-.129 1.006-.37 1.333-.758.424-1.676-.038-1.408-1.11m5.483 3.037c-.129-.34-.23-.707-.592-.815-.017.105-.122.125-.148.222-.012.21.21.185.296.296.163.085.245.248.444.297-.006.09.11.046 0 0m-.295-5.632c-.154-.858-.616-1.41-1.039-2 .06-.38-.103-.538-.073-.888a4.327 4.327 0 01-.37-1.038c-.204-.267-.333-.607-.519-.89-.367-.548-.778-1.05-1.186-1.557-.378-.558-.912-.965-1.334-1.48-.42-.494-.942-.886-1.407-1.335a4.967 4.967 0 01-1.26-.667 5.06 5.06 0 01-.667-.296c-.177-.146-.499-.145-.668-.297-1.086-.147-2.3-.17-3.555-.148-1.03.105-2.115.16-3.039.371-.923.19-1.51.712-2.297 1.037.153.242.634.154.963.221.031.166.394.003.444.15.257-.06.285.11.52.073.563.201 1.23.302 1.704.593.282.138.406.433.667.593.033.19.103.34.221.444.048.275.202.441.15.815.11.21.298.343.295.667-.074.148-.128.317-.296.372-.026.196-.378.067-.444.221-.255-.032-.416.03-.593.075-.154.043-.487-.09-.519.074-.842.023-1.3.43-1.853.74.431.262 1.032.352 1.334.742.516.076 1.057.13 1.112.666 0 .717-.77.661-1.333.815-.774.661-1.195 1.672-1.779 2.52.238.157.564.226.74.444.455-.057.54.251.667.52.02.488-.332.605-.592.815a3.47 3.47 0 00-.667.741c-.003.818-.022 1.651.074 2.371.063.014.07-.029.074-.074.226-.44.56-.775.815-1.186.532-.357.925-.853 1.556-1.11.452-.414 1.11-.623 1.557-1.039.6-.263 1.158-.57 1.704-.889.67-.195 1.056-.673 2.001-.593.198.098.393.2.593.297.257.456-.059 1.08.147 1.63.255.66.797 1.031 1.26 1.482.29.155.555.335.815.52.347.096.675.215.964.37.376.018.713.077 1.037.147h1.26c.244-.052.475-.119.74-.148.21-.137.38-.313.666-.37.79-.694 1.271-1.696 1.41-3.039-.124-.485.051-.874 0-1.482m3.408 4.075c-.227.367-.909.278-1.408.372h-1.112c.142.352.343.646.52.963.055.438.254.734.222 1.26.13.166.176.416.296.592.104.145.242.478.074.667-.05.221-.294.248-.592.222a.506.506 0 01-.222-.148c-.448-.433-.778-1.013-1.26-1.408-.01-.008-.062.001-.075 0-.087-.004-.033-.046-.075-.074-.147-.097-.257-.152-.369-.222-.284-.177-.547-.445-.89-.519-.53.211-1.157.326-1.852.37-1.158-.102-2.303-.215-3.039-.74-.91-.35-1.476-1.043-2.149-1.63-.049-.32-.342-.399-.37-.742-.005-.045-.012-.088-.073-.074.043-.24-.05-.345-.075-.518 0-.133.2-.432 0-.52-.822.12-1.485.63-2.149.964-.718.36-1.468.603-2.074 1.111-.716.322-1.26.816-1.778 1.334-.209.311-.542.495-.668.89-.379.164-.175.912-.74.89-.316.042-.345-.2-.445-.372-.07-.226-.36-.232-.37-.518-.005-.046-.012-.089-.075-.075-.17-1.089-.528-1.992-.519-3.26.13-.415.35-.738.593-1.038-.418-.05-.716-.222-.89-.519-.059-1.073.378-1.647.742-2.297.134-.383.351-.684.593-.963.017-.229.206-.288.296-.445.018-.105.122-.125.15-.222-.042-.106.287-.18.072-.22-.413-.132-1.016-.07-1.26-.372-.109-.28-.109-.833 0-1.112.034-.237.283-.26.297-.518.5-.417 1.081-.747 1.631-1.112.574-.166 1.211-.27 1.852-.37-.102-.343-.338-.55-.593-.742-.78-.38-1.849-.473-2.742-.74-.555-.038-.956-.23-1.556-.223C1.04 3.878.518 3.93.26 3.783c-.12-.069-.1-.096-.222-.22-.134-.413.111-.74.444-.89-.005-.254.22-.277.371-.372.09-.182.254-.29.445-.37.544-.468 1.268-.759 1.927-1.112C4.054.636 4.872.443 5.744.3c.895-.116 1.9-.124 2.815-.22h.963c.511-.133 1.231-.055 1.853-.076.094.102.322.074.518.075.523.268 1.196.384 1.631.74.574.241.99.641 1.557.89.866.764 1.936 1.324 2.518 2.372.205.19.351.438.446.74.264.156.384.454.592.667.405.41.706.924 1.037 1.408.32.496.577 1.054.89 1.556-.01.405.306.484.296.89.193.225.177.661.371.888-.033.255.03.415.074.594.047 1.281-.047 2.422-.297 3.407.588.155 1.181.302 1.631.593.526.185.998.582.814 1.26" />
        </g>
    </symbol>
</svg>