
    <symbol id="arrow">
        <svg xmlns="http://www.w3.org/2000/svg" viewBox="0 0 50 26">
            <path d="M0 11h42.34l-8.17-8.17L37 0l13 13-13 13-2.83-2.82L42.34 15H0z" />
        </svg>
    </symbol>
    <symbol id="html">
        <svg xmlns="http://www.w3.org/2000/svg" viewBox="0 0 1280 800">
            <path
                d="M640.8 302.96l-.81-.08-76.69 8.04v140.57l76.7 45.63 76.69-45.63V310.92l-75.89-7.96zm65.86 142.82L640 485.45l-66.66-39.66v-57.62l66.37 39.51.11 7.16-45.53-27.1-.07 6.95 45.71 27.47.11 7.35-45.7-27.19-.07 6.95L640 456.75l46.15-27.62v-6.98l-.06.03v-22.71l20.57-12.28v58.59zm-.05-66.06l-18.24 10.74-8.42 4.96-40.15-23.88-.07 6.95 34.32 20.41-.3.18-.74.44-4.88 2.87-28.33-16.85-.07 6.95 22.36 13.3-5.28 3.53-.13.08-16.89-9.95-.07 6.95 11.08 6.53-11.29 6.78-66.04-39.26 66.14-39.75v.01l67 39.01zm.05-6.99l-67.02-39.51v-.01h-.02v.01l-66.28 39.46v-52.73l66.66-6.99 66.66 6.99v52.78z"
                stroke="#231f20" stroke-miterlimit="10" />
        </svg>
    </symbol>
    <symbol id="cart">
        <svg xmlns="http://www.w3.org/2000/svg" viewBox="264.2 371 20.3 18.8">
            <path
                d="M283.7 378.2h-3.2l-3.4-6.8c-.2-.4-.6-.5-1-.3s-.5.6-.3 1l3.1 6.1h-9.1l3.1-6.1c.2-.4 0-.8-.3-1-.4-.2-.8 0-1 .3l-3.4 6.8H265c-.4 0-.8.3-.8.8 0 .4.3.8.8.8h.2l.9 3c-.2.1-.3.3-.3.6 0 .4.3.7.7.7l1.7 5.8h12.7l1.7-5.8c.4 0 .7-.3.7-.7 0-.2-.1-.5-.3-.6l.9-3h.2c.4 0 .8-.3.8-.8-.4-.5-.7-.8-1.2-.8zm-4.1 10.1h-10.4L268 384h12.9l-1.3 4.3zm1.6-5.8h-13.7l-.8-2.8H282l-.8 2.8z"
                fill="#231f20" />
        </svg>
    </symbol>
    <symbol id="fb">
        <svg xmlns="http://www.w3.org/2000/svg" viewBox="56.52 50 14.96 27.72">
            <path
                d="M68.18 55.19c1.03.03 1.99 0 2.68-.3.39-.82.56-1.85.62-2.99-.19-.01-.06-.34-.21-.4-.03-.2-.28-.19-.31-.4-.28-.17-.46-.42-.72-.6-.73-.16-1.44-.33-2.16-.5-.85.04-1.89-.1-2.58.1-2.62-.04-4 1.12-5.26 2.39-.02.08 0 .2-.1.2-.57 1.59-.12 3.62-.2 5.58.1.44.11.96.2 1.39-1 .3-2.21.39-3.4.5-.32.32-.18 1.09-.21 1.69.08.58.28 1.06.41 1.59.21.19.6.4.83.5.06.03.07.08.1.1.51.27 1.45.01 2.27.1-.14 1.98.26 3.92 0 5.68.01.33.29.38.21.8 0 .96-.07 1.99.21 2.69-.29.46-.5.98-.42 1.79.12.02.11.16.1.3-.07.47.64.17.52.7.16.46-.43.18-.41.5v.9c.53.29 1.46.18 2.27.2.91-.42 2.19-.48 2.79-1.2.46.24.92-.01 1.24-.2-.02-.32.27-.33.21-.7 0-.33-.17-.5-.1-.9v-2.89c-.21-2.29-.05-4.94-.31-7.18.89-.11 1.92-.08 2.58-.4.36-.45.38-1.23.52-1.89.18-.23.22-.58.21-1 .19-.21.07-.73.1-1.1-.14-.6-.17-1.3-.83-1.4-.88-.24-2.04.6-2.99.3.05-1.13-.29-2.34 0-3.39.72-.14 1.42-.36 2.14-.56zm-3.82 4.78c.12.25.25.49.41.7.08.02.2 0 .21.1 1.19.06 2.2-.07 3.1-.3 0 1-.27 1.73-.52 2.49-.66.04-1.47.3-1.96.2-.28.17-.37.51-.62.7-.05.44.14.5 0 .8-.2.14-.05.61-.21.8v1.5c.08.28-.15.26-.1.5v3.49c-.08.28.15.26.1.5v2.99c.06.27-.13.79.1.9-.07.36-.41-.02-.82.1-.53.12-.93.37-1.55.4.12-.35.32-.62.31-1.1.05-.38-.37-.31-.52-.5.19-.64.56-1.12.72-1.79.2-.51.71-1.3.31-1.79-.52-.11-.52.29-.83.4-.02.08 0 .2-.1.2-.02.08 0 .2-.1.2.01.12-.15.06 0 0 .02-.08 0-.2.1-.2.02-.08 0-.2.1-.2v-.3c.37-.58.67-1.21.83-1.99.19-.28.28-.66.41-1 .16-.26.34-.87.1-1.2-.52.03-.8.29-.93.7-.32-.19.16-.43.1-.7.14-.23.17-.57.31-.8.2-.41.56-1.3 0-1.6-.44-.02-.61.21-.72.5-.21.19-.43.38-.52.7-.37-.07-.14-.73-.21-1.1-.07-.52.12-.9 0-1.2-.56-.8-2.03-.11-3.2-.3-.11-.31-.22-.98-.1-1.2 1.04-.09 2.48.2 3.2-.2.02-.08 0-.2.1-.2.09-.72-.27-1-.51-1.4.23-.81.04-2.02.1-2.99.23-.14.33-.41.51-.6.11-.95.67-1.48.72-2.49-.27 0-.61-.05-.62.2-.3-.11-.38.48-.51.2-.11-.54.25-.63.31-1 .6-.42 1.21-.82 1.86-1.2 1.74-.24 4.65-.45 6.09.2.05.62-.29.85-.21 1.5h-1.55c-1.09.24-1.99.67-2.99 1-.24.07-.28.33-.52.4-.04.4-.22.65-.31 1-.05 1.43.16 2.59.13 3.98z"
                fill="#231f20" />
        </svg>
    </symbol>
    <symbol id="tw">
        <svg xmlns="http://www.w3.org/2000/svg" height="26.891" width="31.325">
            <defs>
                <clipPath id="prefix__a" clipPathUnits="userSpaceOnUse">
                    <path d="M0 20.168h23.494V0H0z" />
                </clipPath>
            </defs>
            <g clip-path="url(#prefix__a)" transform="matrix(1.33333 0 0 -1.33333 0 26.89)">
                <path
                    d="M14.857 14.602c.163-.135.284-.31.52-.37.1-.222.313-.328.592-.37.047.15.346.048.37.221.174.023.166.23.296.297-.017.55-.129 1.006-.37 1.333-.758.424-1.676-.038-1.408-1.11m5.483 3.037c-.129-.34-.23-.707-.592-.815-.017.105-.122.125-.148.222-.012.21.21.185.296.296.163.085.245.248.444.297-.006.09.11.046 0 0m-.295-5.632c-.154-.858-.616-1.41-1.039-2 .06-.38-.103-.538-.073-.888a4.327 4.327 0 01-.37-1.038c-.204-.267-.333-.607-.519-.89-.367-.548-.778-1.05-1.186-1.557-.378-.558-.912-.965-1.334-1.48-.42-.494-.942-.886-1.407-1.335a4.967 4.967 0 01-1.26-.667 5.06 5.06 0 01-.667-.296c-.177-.146-.499-.145-.668-.297-1.086-.147-2.3-.17-3.555-.148-1.03.105-2.115.16-3.039.371-.923.19-1.51.712-2.297 1.037.153.242.634.154.963.221.031.166.394.003.444.15.257-.06.285.11.52.073.563.201 1.23.302 1.704.593.282.138.406.433.667.593.033.19.103.34.221.444.048.275.202.441.15.815.11.21.298.343.295.667-.074.148-.128.317-.296.372-.026.196-.378.067-.444.221-.255-.032-.416.03-.593.075-.154.043-.487-.09-.519.074-.842.023-1.3.43-1.853.74.431.262 1.032.352 1.334.742.516.076 1.057.13 1.112.666 0 .717-.77.661-1.333.815-.774.661-1.195 1.672-1.779 2.52.238.157.564.226.74.444.455-.057.54.251.667.52.02.488-.332.605-.592.815a3.47 3.47 0 00-.667.741c-.003.818-.022 1.651.074 2.371.063.014.07-.029.074-.074.226-.44.56-.775.815-1.186.532-.357.925-.853 1.556-1.11.452-.414 1.11-.623 1.557-1.039.6-.263 1.158-.57 1.704-.889.67-.195 1.056-.673 2.001-.593.198.098.393.2.593.297.257.456-.059 1.08.147 1.63.255.66.797 1.031 1.26 1.482.29.155.555.335.815.52.347.096.675.215.964.37.376.018.713.077 1.037.147h1.26c.244-.052.475-.119.74-.148.21-.137.38-.313.666-.37.79-.694 1.271-1.696 1.41-3.039-.124-.485.051-.874 0-1.482m3.408 4.075c-.227.367-.909.278-1.408.372h-1.112c.142.352.343.646.52.963.055.438.254.734.222 1.26.13.166.176.416.296.592.104.145.242.478.074.667-.05.221-.294.248-.592.222a.506.506 0 01-.222-.148c-.448-.433-.778-1.013-1.26-1.408-.01-.008-.062.001-.075 0-.087-.004-.033-.046-.075-.074-.147-.097-.257-.152-.369-.222-.284-.177-.547-.445-.89-.519-.53.211-1.157.326-1.852.37-1.158-.102-2.303-.215-3.039-.74-.91-.35-1.476-1.043-2.149-1.63-.049-.32-.342-.399-.37-.742-.005-.045-.012-.088-.073-.074.043-.24-.05-.345-.075-.518 0-.133.2-.432 0-.52-.822.12-1.485.63-2.149.964-.718.36-1.468.603-2.074 1.111-.716.322-1.26.816-1.778 1.334-.209.311-.542.495-.668.89-.379.164-.175.912-.74.89-.316.042-.345-.2-.445-.372-.07-.226-.36-.232-.37-.518-.005-.046-.012-.089-.075-.075-.17-1.089-.528-1.992-.519-3.26.13-.415.35-.738.593-1.038-.418-.05-.716-.222-.89-.519-.059-1.073.378-1.647.742-2.297.134-.383.351-.684.593-.963.017-.229.206-.288.296-.445.018-.105.122-.125.15-.222-.042-.106.287-.18.072-.22-.413-.132-1.016-.07-1.26-.372-.109-.28-.109-.833 0-1.112.034-.237.283-.26.297-.518.5-.417 1.081-.747 1.631-1.112.574-.166 1.211-.27 1.852-.37-.102-.343-.338-.55-.593-.742-.78-.38-1.849-.473-2.742-.74-.555-.038-.956-.23-1.556-.223C1.04 3.878.518 3.93.26 3.783c-.12-.069-.1-.096-.222-.22-.134-.413.111-.74.444-.89-.005-.254.22-.277.371-.372.09-.182.254-.29.445-.37.544-.468 1.268-.759 1.927-1.112C4.054.636 4.872.443 5.744.3c.895-.116 1.9-.124 2.815-.22h.963c.511-.133 1.231-.055 1.853-.076.094.102.322.074.518.075.523.268 1.196.384 1.631.74.574.241.99.641 1.557.89.866.764 1.936 1.324 2.518 2.372.205.19.351.438.446.74.264.156.384.454.592.667.405.41.706.924 1.037 1.408.32.496.577 1.054.89 1.556-.01.405.306.484.296.89.193.225.177.661.371.888-.033.255.03.415.074.594.047 1.281-.047 2.422-.297 3.407.588.155 1.181.302 1.631.593.526.185.998.582.814 1.26"
                    fill="#231f20" />
            </g>
        </svg>
    </symbol>
    <symbol id="search">
        <svg xmlns="http://www.w3.org/2000/svg" height="23.465" width="23.466">
            <defs>
                <clipPath id="prefix__a" clipPathUnits="userSpaceOnUse">
                    <path d="M0 17.599h17.6V0H0z" />
                </clipPath>
            </defs>
            <g clip-path="url(#prefix__a)" transform="matrix(1.33333 0 0 -1.33333 0 23.465)">
                <path
                    d="M2.198 9.9a5.5 5.5 0 1011 0 5.5 5.5 0 00-5.5-5.5 5.499 5.499 0 00-5.5 5.5M17.27 1.87l-3.415 3.414A7.67 7.67 0 0115.4 9.9a7.698 7.698 0 01-7.7 7.698A7.697 7.697 0 010 9.9c0-4.253 3.445-7.7 7.698-7.7 1.734 0 3.326.58 4.613 1.546L15.728.33c.203-.202.418-.33.772-.33a1.1 1.1 0 011.1 1.1c0 .24-.062.498-.33.77"
                    fill="#231f20" />
            </g>
        </svg>
    </symbol>
    <symbol id="phone">
        <svg xmlns="http://www.w3.org/2000/svg" height="32.443" width="33.105">
            <defs>
                <clipPath id="prefix__a" clipPathUnits="userSpaceOnUse">
                    <path d="M0 24.333h24.829V0H0z" />
                </clipPath>
            </defs>
            <g clip-path="url(#prefix__a)" transform="matrix(1.33333 0 0 -1.33333 0 32.443)">
                <path
                    d="M17.32 0h-1.114C11.302.58 7.709 2.857 5.095 5.772 2.473 8.695.402 12.458 0 17.516v1.358c.09.92.544 1.549 1.067 2.085.65.666 1.63 1.522 2.522 1.554.659.022 1.78-.451 2.232-1.066.388-.53.595-1.591.775-2.379.185-.797.6-1.949.485-2.716-.176-1.196-1.764-1.704-2.231-2.572 1.55-3.721 4.089-6.456 7.472-8.345.847.464 1.595 1.864 2.767 1.891.427.012.97-.209 1.406-.34.476-.142.89-.326 1.31-.484.705-.266 1.957-.621 2.378-1.213.433-.61.68-1.608.58-2.231C20.572 1.824 18.539.455 17.322 0M12.529 22.805c5.949 0 10.77-4.822 10.77-10.771h1.53c0 6.792-5.506 12.299-12.3 12.299z" />
                <path
                    d="M12.529 15.005v-1.552a1.42 1.42 0 001.42-1.42h1.554a2.972 2.972 0 01-2.974 2.972M12.529 18.086a6.054 6.054 0 006.056-6.054h1.588a7.642 7.642 0 01-7.644 7.641z" />
            </g>
        </svg>
