<svg xmlns="http://www.w3.org/2000/svg">
    <symbol id="arrow">
        <svg xmlns="http://www.w3.org/2000/svg" viewBox="0 0 50 26">
            <path d="M0 11h42.34l-8.17-8.17L37 0l13 13-13 13-2.83-2.82L42.34 15H0z" />
        </svg>
    </symbol>
    <symbol id="html">
        <svg xmlns="http://www.w3.org/2000/svg" viewBox="0 0 1280 800">
            <path
                d="M640.8 302.96l-.81-.08-76.69 8.04v140.57l76.7 45.63 76.69-45.63V310.92l-75.89-7.96zm65.86 142.82L640 485.45l-66.66-39.66v-57.62l66.37 39.51.11 7.16-45.53-27.1-.07 6.95 45.71 27.47.11 7.35-45.7-27.19-.07 6.95L640 456.75l46.15-27.62v-6.98l-.06.03v-22.71l20.57-12.28v58.59zm-.05-66.06l-18.24 10.74-8.42 4.96-40.15-23.88-.07 6.95 34.32 20.41-.3.18-.74.44-4.88 2.87-28.33-16.85-.07 6.95 22.36 13.3-5.28 3.53-.13.08-16.89-9.95-.07 6.95 11.08 6.53-11.29 6.78-66.04-39.26 66.14-39.75v.01l67 39.01zm.05-6.99l-67.02-39.51v-.01h-.02v.01l-66.28 39.46v-52.73l66.66-6.99 66.66 6.99v52.78z"
                stroke="#231f20" stroke-miterlimit="10" />
        </svg>
    </symbol>
    <symbol id="cart">
        <svg xmlns="http://www.w3.org/2000/svg" viewBox="264.2 371 20.3 18.8">
            <path
                d="M283.7 378.2h-3.2l-3.4-6.8c-.2-.4-.6-.5-1-.3s-.5.6-.3 1l3.1 6.1h-9.1l3.1-6.1c.2-.4 0-.8-.3-1-.4-.2-.8 0-1 .3l-3.4 6.8H265c-.4 0-.8.3-.8.8 0 .4.3.8.8.8h.2l.9 3c-.2.1-.3.3-.3.6 0 .4.3.7.7.7l1.7 5.8h12.7l1.7-5.8c.4 0 .7-.3.7-.7 0-.2-.1-.5-.3-.6l.9-3h.2c.4 0 .8-.3.8-.8-.4-.5-.7-.8-1.2-.8zm-4.1 10.1h-10.4L268 384h12.9l-1.3 4.3zm1.6-5.8h-13.7l-.8-2.8H282l-.8 2.8z"
                fill="#231f20" />
        </svg>
    </symbol>
    <symbol id="fb">
        <svg xmlns="http://www.w3.org/2000/svg" viewBox="56.52 50 14.96 27.72">
            <path
                d="M68.18 55.19c1.03.03 1.99 0 2.68-.3.39-.82.56-1.85.62-2.99-.19-.01-.06-.34-.21-.4-.03-.2-.28-.19-.31-.4-.28-.17-.46-.42-.72-.6-.73-.16-1.44-.33-2.16-.5-.85.04-1.89-.1-2.58.1-2.62-.04-4 1.12-5.26 2.39-.02.08 0 .2-.1.2-.57 1.59-.12 3.62-.2 5.58.1.44.11.96.2 1.39-1 .3-2.21.39-3.4.5-.32.32-.18 1.09-.21 1.69.08.58.28 1.06.41 1.59.21.19.6.4.83.5.06.03.07.08.1.1.51.27 1.45.01 2.27.1-.14 1.98.26 3.92 0 5.68.01.33.29.38.21.8 0 .96-.07 1.99.21 2.69-.29.46-.5.98-.42 1.79.12.02.11.16.1.3-.07.47.64.17.52.7.16.46-.43.18-.41.5v.9c.53.29 1.46.18 2.27.2.91-.42 2.19-.48 2.79-1.2.46.24.92-.01 1.24-.2-.02-.32.27-.33.21-.7 0-.33-.17-.5-.1-.9v-2.89c-.21-2.29-.05-4.94-.31-7.18.89-.11 1.92-.08 2.58-.4.36-.45.38-1.23.52-1.89.18-.23.22-.58.21-1 .19-.21.07-.73.1-1.1-.14-.6-.17-1.3-.83-1.4-.88-.24-2.04.6-2.99.3.05-1.13-.29-2.34 0-3.39.72-.14 1.42-.36 2.14-.56zm-3.82 4.78c.12.25.25.49.41.7.08.02.2 0 .21.1 1.19.06 2.2-.07 3.1-.3 0 1-.27 1.73-.52 2.49-.66.04-1.47.3-1.96.2-.28.17-.37.51-.62.7-.05.44.14.5 0 .8-.2.14-.05.61-.21.8v1.5c.08.28-.15.26-.1.5v3.49c-.08.28.15.26.1.5v2.99c.06.27-.13.79.1.9-.07.36-.41-.02-.82.1-.53.12-.93.37-1.55.4.12-.35.32-.62.31-1.1.05-.38-.37-.31-.52-.5.19-.64.56-1.12.72-1.79.2-.51.71-1.3.31-1.79-.52-.11-.52.29-.83.4-.02.08 0 .2-.1.2-.02.08 0 .2-.1.2.01.12-.15.06 0 0 .02-.08 0-.2.1-.2.02-.08 0-.2.1-.2v-.3c.37-.58.67-1.21.83-1.99.19-.28.28-.66.41-1 .16-.26.34-.87.1-1.2-.52.03-.8.29-.93.7-.32-.19.16-.43.1-.7.14-.23.17-.57.31-.8.2-.41.56-1.3 0-1.6-.44-.02-.61.21-.72.5-.21.19-.43.38-.52.7-.37-.07-.14-.73-.21-1.1-.07-.52.12-.9 0-1.2-.56-.8-2.03-.11-3.2-.3-.11-.31-.22-.98-.1-1.2 1.04-.09 2.48.2 3.2-.2.02-.08 0-.2.1-.2.09-.72-.27-1-.51-1.4.23-.81.04-2.02.1-2.99.23-.14.33-.41.51-.6.11-.95.67-1.48.72-2.49-.27 0-.61-.05-.62.2-.3-.11-.38.48-.51.2-.11-.54.25-.63.31-1 .6-.42 1.21-.82 1.86-1.2 1.74-.24 4.65-.45 6.09.2.05.62-.29.85-.21 1.5h-1.55c-1.09.24-1.99.67-2.99 1-.24.07-.28.33-.52.4-.04.4-.22.65-.31 1-.05 1.43.16 2.59.13 3.98z"
                fill="#231f20" />
        </svg>
    </symbol>
    <symbol id="tw">
        <svg xmlns="http://www.w3.org/2000/svg" height="26.891" width="31.325">
            <defs>
                <clipPath id="prefix__a" clipPathUnits="userSpaceOnUse">
                    <path d="M0 20.168h23.494V0H0z" />
                </clipPath>
            </defs>
            <g clip-path="url(#prefix__a)" transform="matrix(1.33333 0 0 -1.33333 0 26.89)">
                <path
                    d="M14.857 14.602c.163-.135.284-.31.52-.37.1-.222.313-.328.592-.37.047.15.346.048.37.221.174.023.166.23.296.297-.017.55-.129 1.006-.37 1.333-.758.424-1.676-.038-1.408-1.11m5.483 3.037c-.129-.34-.23-.707-.592-.815-.017.105-.122.125-.148.222-.012.21.21.185.296.296.163.085.245.248.444.297-.006.09.11.046 0 0m-.295-5.632c-.154-.858-.616-1.41-1.039-2 .06-.38-.103-.538-.073-.888a4.327 4.327 0 01-.37-1.038c-.204-.267-.333-.607-.519-.89-.367-.548-.778-1.05-1.186-1.557-.378-.558-.912-.965-1.334-1.48-.42-.494-.942-.886-1.407-1.335a4.967 4.967 0 01-1.26-.667 5.06 5.06 0 01-.667-.296c-.177-.146-.499-.145-.668-.297-1.086-.147-2.3-.17-3.555-.148-1.03.105-2.115.16-3.039.371-.923.19-1.51.712-2.297 1.037.153.242.634.154.963.221.031.166.394.003.444.15.257-.06.285.11.52.073.563.201 1.23.302 1.704.593.282.138.406.433.667.593.033.19.103.34.221.444.048.275.202.441.15.815.11.21.298.343.295.667-.074.148-.128.317-.296.372-.026.196-.378.067-.444.221-.255-.032-.416.03-.593.075-.154.043-.487-.09-.519.074-.842.023-1.3.43-1.853.74.431.262 1.032.352 1.334.742.516.076 1.057.13 1.112.666 0 .717-.77.661-1.333.815-.774.661-1.195 1.672-1.779 2.52.238.157.564.226.74.444.455-.057.54.251.667.52.02.488-.332.605-.592.815a3.47 3.47 0 00-.667.741c-.003.818-.022 1.651.074 2.371.063.014.07-.029.074-.074.226-.44.56-.775.815-1.186.532-.357.925-.853 1.556-1.11.452-.414 1.11-.623 1.557-1.039.6-.263 1.158-.57 1.704-.889.67-.195 1.056-.673 2.001-.593.198.098.393.2.593.297.257.456-.059 1.08.147 1.63.255.66.797 1.031 1.26 1.482.29.155.555.335.815.52.347.096.675.215.964.37.376.018.713.077 1.037.147h1.26c.244-.052.475-.119.74-.148.21-.137.38-.313.666-.37.79-.694 1.271-1.696 1.41-3.039-.124-.485.051-.874 0-1.482m3.408 4.075c-.227.367-.909.278-1.408.372h-1.112c.142.352.343.646.52.963.055.438.254.734.222 1.26.13.166.176.416.296.592.104.145.242.478.074.667-.05.221-.294.248-.592.222a.506.506 0 01-.222-.148c-.448-.433-.778-1.013-1.26-1.408-.01-.008-.062.001-.075 0-.087-.004-.033-.046-.075-.074-.147-.097-.257-.152-.369-.222-.284-.177-.547-.445-.89-.519-.53.211-1.157.326-1.852.37-1.158-.102-2.303-.215-3.039-.74-.91-.35-1.476-1.043-2.149-1.63-.049-.32-.342-.399-.37-.742-.005-.045-.012-.088-.073-.074.043-.24-.05-.345-.075-.518 0-.133.2-.432 0-.52-.822.12-1.485.63-2.149.964-.718.36-1.468.603-2.074 1.111-.716.322-1.26.816-1.778 1.334-.209.311-.542.495-.668.89-.379.164-.175.912-.74.89-.316.042-.345-.2-.445-.372-.07-.226-.36-.232-.37-.518-.005-.046-.012-.089-.075-.075-.17-1.089-.528-1.992-.519-3.26.13-.415.35-.738.593-1.038-.418-.05-.716-.222-.89-.519-.059-1.073.378-1.647.742-2.297.134-.383.351-.684.593-.963.017-.229.206-.288.296-.445.018-.105.122-.125.15-.222-.042-.106.287-.18.072-.22-.413-.132-1.016-.07-1.26-.372-.109-.28-.109-.833 0-1.112.034-.237.283-.26.297-.518.5-.417 1.081-.747 1.631-1.112.574-.166 1.211-.27 1.852-.37-.102-.343-.338-.55-.593-.742-.78-.38-1.849-.473-2.742-.74-.555-.038-.956-.23-1.556-.223C1.04 3.878.518 3.93.26 3.783c-.12-.069-.1-.096-.222-.22-.134-.413.111-.74.444-.89-.005-.254.22-.277.371-.372.09-.182.254-.29.445-.37.544-.468 1.268-.759 1.927-1.112C4.054.636 4.872.443 5.744.3c.895-.116 1.9-.124 2.815-.22h.963c.511-.133 1.231-.055 1.853-.076.094.102.322.074.518.075.523.268 1.196.384 1.631.74.574.241.99.641 1.557.89.866.764 1.936 1.324 2.518 2.372.205.19.351.438.446.74.264.156.384.454.592.667.405.41.706.924 1.037 1.408.32.496.577 1.054.89 1.556-.01.405.306.484.296.89.193.225.177.661.371.888-.033.255.03.415.074.594.047 1.281-.047 2.422-.297 3.407.588.155 1.181.302 1.631.593.526.185.998.582.814 1.26"
                    fill="#231f20" />
            </g>
        </svg>
    </symbol>
    <symbol id="search">
        <svg xmlns="http://www.w3.org/2000/svg" height="23.465" width="23.466">
            <defs>
                <clipPath id="prefix__a" clipPathUnits="userSpaceOnUse">
                    <path d="M0 17.599h17.6V0H0z" />
                </clipPath>
            </defs>
            <g clip-path="url(#prefix__a)" transform="matrix(1.33333 0 0 -1.33333 0 23.465)">
                <path
                    d="M2.198 9.9a5.5 5.5 0 1011 0 5.5 5.5 0 00-5.5-5.5 5.499 5.499 0 00-5.5 5.5M17.27 1.87l-3.415 3.414A7.67 7.67 0 0115.4 9.9a7.698 7.698 0 01-7.7 7.698A7.697 7.697 0 010 9.9c0-4.253 3.445-7.7 7.698-7.7 1.734 0 3.326.58 4.613 1.546L15.728.33c.203-.202.418-.33.772-.33a1.1 1.1 0 011.1 1.1c0 .24-.062.498-.33.77"
                    fill="#231f20" />
            </g>
        </svg>
    </symbol>
    <symbol id="phone">
        <svg xmlns="http://www.w3.org/2000/svg" height="32.443" width="33.105">
            <defs>
                <clipPath id="prefix__a" clipPathUnits="userSpaceOnUse">
                    <path d="M0 24.333h24.829V0H0z" />
                </clipPath>
            </defs>
            <g clip-path="url(#prefix__a)" transform="matrix(1.33333 0 0 -1.33333 0 32.443)">
                <path
                    d="M17.32 0h-1.114C11.302.58 7.709 2.857 5.095 5.772 2.473 8.695.402 12.458 0 17.516v1.358c.09.92.544 1.549 1.067 2.085.65.666 1.63 1.522 2.522 1.554.659.022 1.78-.451 2.232-1.066.388-.53.595-1.591.775-2.379.185-.797.6-1.949.485-2.716-.176-1.196-1.764-1.704-2.231-2.572 1.55-3.721 4.089-6.456 7.472-8.345.847.464 1.595 1.864 2.767 1.891.427.012.97-.209 1.406-.34.476-.142.89-.326 1.31-.484.705-.266 1.957-.621 2.378-1.213.433-.61.68-1.608.58-2.231C20.572 1.824 18.539.455 17.322 0M12.529 22.805c5.949 0 10.77-4.822 10.77-10.771h1.53c0 6.792-5.506 12.299-12.3 12.299z" />
                <path
                    d="M12.529 15.005v-1.552a1.42 1.42 0 001.42-1.42h1.554a2.972 2.972 0 01-2.974 2.972M12.529 18.086a6.054 6.054 0 006.056-6.054h1.588a7.642 7.642 0 01-7.644 7.641z" />
            </g>
        </svg>
    </symbol>
    <symbol id="logo" height="96.944" width="197.4">
        <defs>
            <clipPath id="prefix__a" clipPathUnits="userSpaceOnUse">
                <path d="M0 72.708h148.05V0H0z" />
            </clipPath>
        </defs>
        <g clip-path="url(#prefix__a)" transform="matrix(1.33333 0 0 -1.33333 0 96.944)">
            <path
                d="M87.835 56.356a1.13 1.13 0 01-.134-.123c.072.312.149.623.229.934h.11c-.068-.27-.139-.541-.206-.811m55.33-15.046c-1.48-1.055-3.053-1.942-4.656-2.777.036 1.747-.12 3.465-.592 5.127.051.333.103.667.146 1.002.375 3.005.656 7.122-2.004 9.224-.334.265-1.248.035-1.922-.274a4.64 4.64 0 01-.496.415c-.082.242-.159.487-.229.735-.035.12-.168.188-.36.215.285.383.262.818-.419 1.092a18.59 18.59 0 01-1.143.413c-.067.072-.127.096-.172.058l-.005-.003c-.939.3-1.894.533-2.86.705.138.331.397.813.552 1 .132.157.28.3.43.439.061.057.124.111.187.165l.07.061.083.062c.38.288.846.865.221 1.202-.57.307-1.508.142-2.008-.238-.862-.655-1.625-1.379-2.09-2.361-2.01.169-4.05.155-6.08.078a.757.757 0 01.141.25c.184.585-.908.525-1.187.488a924.13 924.13 0 00-4.689-.604c1.367 3.773 3.083 8.578 1.001 12.264-1.189 2.106-3.906 2.579-6.098 2.652-2.436.081-4.898-.461-7.036-1.636-4.762-2.618-7.11-7.71-8.21-13.138-.497.657-2.3.425-2.644-.468-.125-.32-.23-.645-.328-.972a1.446 1.446 0 01-.345-.637c-.015-.056-.026-.111-.04-.167l-.197-.007c.02.104.041.207.064.31.147.109.247.232.28.366.574 2.296 1.156 4.588 1.95 6.82.267.756-2.513.399-2.806-.426a51.161 51.161 0 01-1.119-3.622c-.166-.078-.358-.187-.426-.326-.018-.034-.03-.07-.047-.104-.107.093-.27.151-.467.178v.959c0 .432-2.822.034-2.822-.757v-1.568a2.363 2.363 0 01-.473-.266c-.062-.057-.127-.114-.189-.172a.377.377 0 01-.12-.245c-.007-.026-.013-.053-.023-.078-.017-.022-.032-.046-.052-.066-.125-.128-.184-.335-.027-.467.191-.16.508-.167.738-.159.048.002.097.007.146.011v-.468c-.227.001-.45.003-.675.006l-.41.051c-.022.385-.677.452-1.352.328a.61.61 0 010 .148 23.606 23.606 0 00-.23 1.79c.237.079.472.18.681.313.158.102.327.224.327.43v.194c0 .18-.41.204-.499.208a2.84 2.84 0 01-.589-.041c-.075 1.305-.08 2.615-.08 3.925 0 .84-2.825.315-2.823-.757 0-1.786.007-3.57.192-5.343a2.495 2.495 0 01-.27-.009v1.532c0 1.045-1.297 1.22-2.147.809.313.262.488.622.37 1.039-.403 1.414-.778 2.827-.974 4.287-.188 1.394-3.017.677-2.824-.756.196-1.46.57-2.873.975-4.287.235-.828 1.338-.889 2.103-.51-.226-.196-.373-.452-.373-.76v-.63c-.188.098-.438.16-.769.16-1.057 0-1.67-.885-1.4-1.477-.164.027-.327.054-.49.083-.383 1.248-.687 2.514-.715 3.83-.02.942-1.27 1.049-2.108.672a.571.571 0 01-.049.168c-.385.804-.567 1.674-.78 2.533-.332 1.35-3.158.601-2.823-.756.157-.638.3-1.281.52-1.898l-.057-.014a2.651 2.651 0 01-.854-.387c-.832-.079-1.828-.565-1.752-1.208.058-.478.131-.953.21-1.427-.547-.091-1.093-.177-1.64-.26a11.905 11.905 0 00-.618 2.443c-.13.924-1.555.854-2.332.26-.774 2.062-1.796 4.019-3.122 5.761-2.62 3.439-7.097 4.613-11.242 3.794-1.9-.376-3.735-1.184-5.043-2.646-1.21-1.353-1.352-3.089-1.17-4.805.158-1.493.61-4.005 1.584-5.976-.35.012-.709-.041-.949-.139a11.046 11.046 0 01-.833-.388 95.043 95.043 0 00-5.803.07c-4.179.194-8.3.86-12.497.742-.923-.026-1.534-.719-1.465-1.262-1.046-.502-1.733-1.315-2.143-2.287-1.732 1.15-3.479 2.266-5.335 3.211-.689.351-3.3-.707-2.285-1.224 1.84-.938 3.561-2.072 5.278-3.216.512-.341 1.32-.133 1.842.07.03.012.09.039.165.077-.306-1.44-.157-3.067.241-4.493a.565.565 0 01.172-.27 9.289 9.289 0 01-.007-1.015c0-.055 0-.109-.002-.165-.4-.189-.712-.48-.76-.839a37.38 37.38 0 01-.305-4.229c-.272-.199-.462-.469-.485-.798-.233-3.345.037-6.651.467-9.95.185-2.694.69-5.344 1.172-7.998.058-.416.113-.832.167-1.25-.265-1.133-.398-2.395-.237-3.482-.88-.171-1.729-.866-1.233-1.617.765-1.158 1.644-2.019 2.606-2.649-.633.103-1.42-.11-1.87-.555-.819-.809-1.716-1.531-2.534-2.339-.429-.424-.314-.935.29-1.078.65-.155 1.515.059 1.996.535.817.808 1.715 1.531 2.533 2.339.248.245.308.518.204.73 3.21-1.734 7.235-1.269 11.114-.942-.882-1.589-1.542-3.272-2.17-4.997-.262-.719 2.507-.373 2.801.435.61 1.676 1.237 3.344 2.103 4.896 3.741-.117 7.48-.122 11.215-.051.15-.182.416-.305.746-.336 3.27-.311 6.49.096 9.688.699 4.79.229 9.577.525 14.366.809 7.527.187 15.056.347 22.587.319.1-.108.204-.214.314-.317.272-.256.621-.345.98-.33.061-.009.128-.016.198-.019a69.72 69.72 0 002.141-.145c.156-.04.341-.059.56-.046h.004c.781-.066 1.563-.141 2.346-.208.172-.214.497-.342.792-.36 3.803-.25 7.612-.523 11.423-.703.14-.23.537-.34.82-.344 7.066-.06 15.277-2.804 21.56 1.736.5.361.271.877-.266.984a1.897 1.897 0 01-.325.034c.007.016.017.03.022.045a60.672 60.672 0 012.944 8.552c.366.198.633.494.647.86.05 1.189.187 2.406.371 3.638.166.885.313 1.772.441 2.661.387 2.169.806 4.367 1.018 6.541 2.28 1.147 4.538 2.335 6.622 3.819 1.566 1.117-.784 1.883-1.832 1.137" />
            <path
                d="M63.26 60.081c.128-.196.563-.217.754-.217.377 0 .759.083 1.106.225.404.166 1.1.56.77 1.07-.363.562-.61 1.19-.975 1.754-.127.196-.562.217-.754.217a2.914 2.914 0 01-1.105-.226c-.404-.165-1.101-.558-.77-1.069.363-.562.61-1.19.975-1.754M20.683 61.8c.216-.647 1.11-.647 1.648-.504.472.127 1.39.616 1.175 1.26-.208.624-.433 1.293-.893 1.78-.48.507-1.324.417-1.902.152-.412-.191-1.177-.84-.695-1.35.382-.405.478-.772.667-1.338M30.66 58.812c.843 0 3.073 1.276 1.186 1.276-.843 0-3.074-1.276-1.186-1.276M122.562 60.433c.346-.072.717-.032 1.055.06.32.085.699.233.941.476.355.355.728.73.961 1.178.105.198.174.4-.004.587-.188.197-.508.245-.764.251a2.69 2.69 0 01-1.105-.22c-.252-.106-.621-.294-.756-.553a3.08 3.08 0 00-.402-.572l-.196-.199c-.158-.158-.345-.365-.279-.614.064-.24.334-.349.549-.394M135.86 55.015c.632.061 1.396.246 1.895.662 1.319 1.102 2.602 2.248 3.623 3.642.288.393-1.05.243-1.12.23-.532-.099-1.315-.276-1.66-.746-.948-1.296-2.163-2.349-3.39-3.374-.498-.415.44-.434.653-.414M146.74 27.938h-4.872c-.616 0-1.476-.467-1.556-1.14-.09-.737.754-.921 1.304-.921h4.87c.617 0 1.476.469 1.558 1.139.09.739-.754.922-1.304.922M57.02 11.923c-.498-.08-1.412-.296-1.639-.831a34.581 34.581 0 01-1.364-3.897c-.21-.733 2.571-.333 2.798.452a34.56 34.56 0 001.364 3.896c.221.527-.967.412-1.159.38M61.602 9.332a3.893 3.893 0 01-1.03-.152 3.87 3.87 0 01-.967-.383c-.141-.084-.338-.199-.338-.39a3.075 3.075 0 00-.021-.346.755.755 0 00-.113-.272c-.064-.082-.108-.18.018-.253.196-.114.502-.083.712-.061.374.037.745.127 1.099.252.243.084.613.207.795.406.149.164.24.286.284.501.035.177.05.348.05.529-.001.166-.422.168-.49.169M116.652 5.656c-.354.686-3.043-.33-2.823-.758.844-1.637 1.938-3.12 2.923-4.676.435-.689 3.04.414 2.823.756-.983 1.555-2.08 3.04-2.923 4.678M120.744 7.994c-.294.588-1.066.563-1.624.414-.351-.094-1.485-.598-1.2-1.17l1.17-2.34c.294-.588 1.068-.56 1.624-.414.35.095 1.486.6 1.199 1.172l-1.17 2.338M5.668 29.602c-1.486-.358-3.006-.57-4.481-.975-.537-.146-1.342-.64-1.16-1.318.18-.675 1.128-.71 1.664-.561 1.476.403 2.995.615 4.482.975.54.129 1.338.65 1.16 1.317-.185.685-1.124.693-1.665.562" />
            <path
                d="M43.752 32.602c-.084 2.707-.515 5.396-.48 8.107.029 2.194.394 4.45-.362 6.555.047.238.097.477.14.716.196 1.056-3.3.497-3.848-.467-.347-.284-.524-.621-.378-.966.037-.087.07-.174.102-.262-.662-3.234-1.584-6.365-2.645-9.498-.406-1.2-.896-2.371-1.31-3.566-.587 1.114-1.18 2.215-1.658 3.408-1.386 3.464-2.636 6.966-4.326 10.3.192 1.543-3.232 1.38-3.907-.033-.816-1.71-.71-3.434-.442-5.262.303-2.06.356-4.086.381-6.167.048-4.011.361-8.015.421-12.027-.357-.397-.466-.89-.092-1.388.163-.217.365-.385.576-.554.913-.73 3.533-.107 3.528 1.284-.014 4.16-.314 8.31-.424 12.47-.01.408-.018.814-.024 1.223l.173-.438c.646-1.62 1.322-3.191 2.205-4.697.876-1.49 1.315-3.092 1.82-4.718-.19-.22-.306-.467-.235-.715-.04-.182.071-.294.253-.364.645-.551 1.858-.277 2.532.007.29.122.566.263.834.427.348.215.891.687.735 1.17l-.088.28c.475 1.282.716 2.613.975 3.966.275 1.44.79 2.806 1.307 4.172.053-.625.107-1.25.157-1.873.206-2.576.033-5.117.008-7.695-.009-.854.054-1.65.221-2.485.068-.345.37-1.824.283-1.904-.617-.57-.438-1.268.39-1.45.922-.202 2.1.106 2.794.75 1.21 1.116.638 2.87.364 4.28-.46 2.36.093 5.008.02 7.414M52.191 31.919c-.074 2.007-.77 3.897-.78 5.925-.012 2.327.182 4.635-.157 6.949-.107.732-4.093-.101-3.953-1.06.312-2.128.2-4.267.161-6.411-.037-2.063.472-3.933.737-5.958.271-2.073-.085-4.195.15-6.271.11-.971.758-2.768.09-3.612-.424-.538 1.482-.344 1.568-.331.775.144 1.81.396 2.324 1.049.66.835.198 2.448.054 3.387-.32 2.08-.115 4.236-.194 6.333M68.67 35.27c-2.08 2.808-5.943.786-8.64 1.553-1.39.397-1.407 2.293-1.403 3.428.004 1.439-.115 2.757-.276 4.185-.119 1.06-.024 2.14.753 2.93.143.146.866.339.817.342.356.062.683.077 1.077.093 1.562.068 4.654-.234 4.056-2.506-.269-1.02 3.63-.435 3.913.643 1.224 4.64-7.352 3.749-9.774 3.106-2.23-.591-4.692-1.861-4.819-4.438-.062-1.23.274-2.4.328-3.62.061-1.403-.2-2.801.291-4.154 1.092-3.01 5.57-1.59 7.85-1.761 3.88-.29 2.721-5.52 2.771-7.955.027-1.301 1.192-3.461.213-4.55-.6-.667-2-.706-2.817-.774-.82-.07-2.22-.315-2.768.465-1.002 1.43.093 3.834-.12 5.474-.123.934-4.105.097-3.954-1.06.346-2.65-1.412-6.198 2.424-6.653 2.464-.293 5.238.162 7.568.936 1.207.4 2.328.95 3.272 1.81 1.045.948.701 2.368.421 3.578-.682 2.944.74 6.333-1.183 8.928M86.154 35.459c-.121 3.812-.695 7.582-.711 11.4-.008 1.989-4 1.317-3.992-.346.015-3.641.5-7.232.687-10.863l.012-.222c-1.967.018-3.934-.179-5.904-.248.203 4.675-.617 9.311-.438 13.983.022.587-3.91.091-3.953-1.059-.172-4.516.593-8.997.457-13.514-.064-2.154-.247-4.303-.262-6.46-.008-1.105.173-2.204.332-3.293.147-1.008.488-2.353.183-3.349-.238-.779 3.594-.293 3.897.701.549 1.793-.224 4.077-.408 5.892-.177 1.74-.041 3.53.084 5.296 2.047.131 4.096.3 6.135.012.09-1.391.197-2.78.324-4.172.107-1.168.182-2.334.199-3.507.016-1.028.143-2.519-.223-3.492-.78-2.075 3.179-1.905 3.757-.368.71 1.887.507 4.237.386 6.22-.152 2.468-.482 4.92-.562 7.389M103.242 30.945c-.948 2.783-2.395 5.224-3.65 7.868 1.01 1.967 2.037 3.935 2.96 5.942.838 1.824 1.46 3.854 3.107 5.14.579.45.555.903-.26.96-.882.06-2.081-.195-2.794-.75-1.498-1.168-2.447-2.587-3.228-4.307a162.468 162.468 0 00-2.94-6.13c-.074-.149-.15-.298-.226-.448-.494-.318-.792-.769-.645-1.277-.8-1.578-1.614-3.146-2.521-4.653-.302 5.584-.963 11.162-1.161 16.751-.045 1.281-4.007.484-3.953-1.059.246-6.93 1.23-13.846 1.299-20.775l-.05-.05c-.302-.312-.19-.499.054-.608a61.45 61.45 0 00-.211-5.302c-.477-.752.467-1.15 1.094-1.15h.098c.746 0 2.648.354 2.742 1.377.193 2.118.254 4.234.234 6.35 1.605 1.73 2.916 3.662 4.093 5.685.766-1.494 1.495-3 2.007-4.625.868-2.765 2.32-5.307 3.159-8.086.55-1.822 4.497-.746 3.952 1.06-.84 2.776-2.224 5.344-3.16 8.087M112.207 35.773c-.103 1.258-.22 2.514-.305 3.777-.162 2.352.117 5.635 2.31 7.063.586.383 1.69.317 2.376.442.98.176 1.974.393 2.855-.192 1.221-.81.92-3.69.917-4.913-.001-2.025.212-4.038.315-6.058a13.82 13.82 0 00-1.699-.078c-2.307.056-4.584.418-6.769-.04m14.752-.152c-.212.84-1.385.857-2.292.776-.014.34-.022.678-.036 1.017-.127 2.686-.168 5.427-.396 8.105-.21 2.48-1.599 3.368-4.007 3.275-2.439-.092-5.278-.53-7.55-1.416-2.633-1.023-4.097-2.96-4.602-5.732-.556-3.04.241-6.275.377-9.33.155-3.536.066-7.079.062-10.615 0-.579 3.952-.032 3.953 1.06.004 2.8.043 5.601 0 8.401a52.98 52.98 0 01-.104 2.465c1.382.6 3.721-.012 5.097-.142 1.117-.106 2.188.166 3.272.294.022-2.333.11-4.679.205-7.009.05-1.193.481-3.562-.356-4.55-.44-.522 1.493-.348 1.567-.335.802.148 1.778.405 2.325 1.051.96 1.13.461 3.824.405 5.172-.079 1.93-.103 3.86-.144 5.79 1.166.151 2.442.864 2.224 1.723M48.77 47.531a3.193 3.193 0 011.49.53c.088.072.174.145.26.218.524.338.98.834.734 1.373-.508 1.115-.427 2.251-.42 3.445.007.966-.972 1.257-1.797 1.185-.728-.064-2.187-.586-2.193-1.534-.008-1.002-.073-2.034.11-3.02-.05-.113-.076-.24-.106-.358-.055-.214.017-.424.145-.595l.001-.135c.006-.113.012-.226.016-.338a.908.908 0 01.433-.535c.39-.236.884-.279 1.328-.236"
                fill="currentColor" />
        </g>
    </symbol>
    <symbol class="inst">
        <svg xmlns="http://www.w3.org/2000/svg" width="29.027" height="28.44" viewBox="0 0 21.77 21.33">
            <defs>
                <clipPath id="prefix__a">
                    <path d="M0 0h21.77v21.328H0zm0 0" />
                </clipPath>
            </defs>
            <g clip-path="url(#prefix__a)">
                <path
                    d="M13.188 7.664c.21.117.44.215.605.379.086.219.246.363.379.531.058.778.18 1.492.152 2.352-.254.097-.437.27-.68.383-.78-.008-1.359-.211-1.898-.457-.172-.258-.355-.504-.535-.758V9.03c.172-.183.32-.39.457-.61.23-.124.508-.198.457-.605-.04-.062-.082-.125-.078-.23.16.047.246.16.379.23.324.016.41-.199.761-.152m1.137 3.793c-.234-.055-.144.211-.379.152.07-.156.121-.336.23-.453.134.02.173.13.15.301m-2.2 2.582c.035-.11.066.008.152 0-.02.098-.152.078-.152 0m-.758-2.883c-.043-.039.051-.097.074-.078.04.04-.054.098-.074.078m-.383-3.949c-.203.258.043.578.079.836-.305-.04-.575-.887-.079-.836M9.316 9.332c.016-.086.075-.043.075 0-.016.086-.075.043-.075 0m-.457 2.05c.04-.116.079-.003.079.075-.043.117-.083.008-.079-.074m-.074-.305c-.113-.062-.11-.242-.152-.379.254-.078.117.239.152.38M12.2 6.75c-.222-.23-.676-.23-.988-.379-.695-.035-1.219.094-1.746.23-.3.149-.606.305-.91.454-.262.168-.442.418-.758.53-.207.228-.352.513-.684.61-.004.223-.172.282-.304.38-.09.113-.094.312-.227.378-.008.121.035.29-.074.305.11 1.512.289 2.945.68 4.176.289.625.976.843 1.445 1.289.586.297 1.328.445 2.125.53.277-.05.55-.105.91-.073a5.098 5.098 0 002.809-1.442c.101-.281.253-.508.457-.683-.254-.672.293-1.098.457-1.598 0-1.344-.204-2.48-.61-3.414-.254-.578-.922-.754-1.367-1.14-.059-.016-.148 0-.148-.075-.27-.133-.735-.234-1.067-.078m1.14-1.82c-.112.047.005.093 0 0m-2.808-.606c.02.02.114-.039.074-.078-.02-.02-.113.035-.074.078m.531-.383c-.316-.07-.015.23 0 0m2.278.989c.531-.047.746-.414 1.215-.532.28-.296.78-.378.988-.757-.563.023-.766.398-1.219.53-.281.298-.75.411-.984.759m-2.277-.989a2.03 2.03 0 00.835-.605 2.015 2.015 0 00-.835.605m.835-.605c.063.016.07-.031.075-.074-.067-.016-.07.027-.075.074m.075-.074c.066.011.07-.032.074-.078-.063-.016-.07.03-.074.078m.074-.078c.113-.047-.004-.09 0 0m.683-.61c-.109.047.008.094 0 0m.684.836c.727-.156 1.18-.59 1.746-.91-.437.02-.59.32-.988.379-.215.219-.598.262-.758.531m1.746-.91c.113-.047-.008-.09 0 0m-1.062-.605c-.528.152-1.016.347-1.368.68.485-.196 1.063-.305 1.368-.68m0 0c.109-.047-.008-.094 0 0m5.847 3.718c-.64-.12-1.234-.285-1.898-.379.07-.332.797-.011.988-.226.383-.223.293-.922.3-1.52.036-.347.118-.644.08-1.062-.403-.953-1.786-.422-2.888-.457-.226.718-.468 1.8-.304 2.656.172.492 1.027.293 1.52.457-.141.332-.688.059-.99.074-.296-.082-.706-.05-.983-.148-2.286.074-4.286.004-6.532.148.117-1.246.063-2.465-.074-3.64h3.113c-.347.363-.914.504-1.293.832-.441.246-.859.507-1.136.914.246.133.535-.246.757-.38.356-.073.48-.382.836-.456.422-.438 1.094-.625 1.668-.91.38-.024.7.011.989.074 1.28.008 2.457.129 3.797.074.613.149 1.449.07 1.972.305.106.297.23.582.305.914.008.992-.149 1.824-.227 2.73m-.379 11.16c-.109.954-.16 1.97-.382 2.809-2.887.121-6.016.004-8.883.152-.2.047-.27-.03-.227-.226-.254 0-.258.246-.531.226.203-.336.437-.898.152-1.289-.797.012-.797.82-1.14 1.29-.684-.051-1.137.128-1.82.074.18-.704.75-1.02.91-1.743-.395-.55-.989.137-1.215.454-.203.48-.555.808-.758 1.289h-.988c.238-.465.488-.922.761-1.364.168-.511.625-.742.68-1.367-.156-.281-.418-.031-.68 0-.125.18-.273.332-.383.531-.23.375-.5.711-.683 1.137-.18.211-.336.004-.527.23-.391.27-.582.735-.989.985-.175-.059.035-.356.153-.379.046-.18-.098-.55.074-.605.062-.368.21-.649.379-.915.117-.742.523-1.199.683-1.898-.558.102-.672.645-.988.988-.21.446-.539.774-.684 1.293-.171-.133-.027-.582-.074-.836.121-.586.297-1.12.38-1.746.132-.222.171-.535.23-.836.168-.207.046-.609-.079-.761-.226.027-.374.132-.457.304-.19-.03-.19.508-.3.305-.047-2.586-.453-4.813-.457-7.438.027-.332-.184-.425-.227-.687a73.57 73.57 0 014.781.23c-.09.137-.199.258-.3.38-.145.07-.227.171-.383.304-.602 1.652-.973 3.984-.606 6.149.227.582.59 1.03.989 1.44.906.485 1.632 1.15 2.503 1.673 1.7.36 3.84.367 5.543 0 .235-.121.48-.227.684-.38 1.363-1.241 2.75-2.46 2.961-4.858V10.32c-.2-1.597-.691-2.906-1.75-3.644.332-.219 1.102.043 1.672.074.223.016.45.016.683 0 .407-.023.93-.055 1.442 0 .144.188.117.547.23.762-.062 1.683-.195 3.3-.152 5.086.102.457.125.988.227 1.441-.09.977-.235 1.895-.454 2.734M1.344 5.688v-1.59a7.96 7.96 0 01.61-.535c.292.492.175 1.39.452 1.898-.277.156-.75.11-1.062.226M1.27 2.426c.222-.207.449-.41.683-.61-.023-.12.07-.129.074-.226h.227c.101.383-.258.297-.3.531.019.121-.075.129-.079.227.02.336.121.59.078.988-.273.008-.277.281-.61.227.024-.426-.132-.672-.073-1.137m.453-.762c-.036.223-.325.18-.38.379-.214-.168.083-.465.38-.379m.988-.074c.027.258-.441.32-.379 0zm.684 3.719c.148-.028.109.347-.079.23a.395.395 0 00.079-.23m.226-3.72c.035.157-.05.2-.074.306-.176.023-.086-.22-.23-.23.023-.103.19-.063.304-.075m0 1.137c-.262.054-.273-.266-.152-.38.261-.054.273.266.152.38m-.226 2.05c.074-.308.03-.3.074-.68.23.012.261.766-.074.68m.152-.988c-.207.023-.219-.531-.078-.605.328.007.25.5.078.605m.531 0c.004-.105.012-.21-.078-.227-.07-.734.129-1.414 0-1.972.25-.156.77-.043 1.14-.078v1.14a.487.487 0 01-.378.075c-.055.28.324.132.379.304.007.856-.059 1.778.152 2.43-.566-.059-.906.105-1.441.074.093-.61-.02-1.433.527-1.594-.008-.14-.254-.046-.3-.152m2.35 1.219c.176-.028.087.219.231.226-.012.192-.285.18-.383.075.04-.11.114-.192.153-.301m.152-.23c-.059.14-.082-.044-.074-.153.054-.137.078.047.074.152m0-1.367c-.133-.066-.168-.234-.152-.453.133.07.168.238.152.453M6.43 1.59c.09-.012.133.015.152.074.18.254.008.684-.074.914-.176-.18-.028-.683-.078-.988m.683 1.594c-.117-.262-.066-.692-.074-1.063-.008-.285.277-.277.3-.531 0-.074-.089-.059-.152-.074.13-.149.704-.098.836 0 .133.535-.355.453-.53.68.01.167.323.034.456.077.031.852-.058 1.497 0 2.204h-.457c-.004.23.23.222.457.226-.058.285.094.363.074.606-.226.152-.714.043-1.062.078-.102-.594.238-1.375.152-2.203m1.672 2.734c.758-.152 1.48-.344 2.426-.305.71.074 1.289.282 1.898.453.118.184-.242.547.157.684v.078c.058.016.148 0 .148.074.445.035.793.168 1.063.38.453.054.539.476 1.14.382-.09.211-.086.524-.074.832.324 1.184.473 2.813.3 4.254-.163.164-.214.441-.3.684-.313.32-.484.785-.836 1.062a1.09 1.09 0 01-.457.531c-.117.215-.207.453-.457.532-.297.164-.578.011-.832-.079-.445.165-.906.313-1.215.61-.816-.098-1.648-.176-2.43-.305-.242-.137-.488-.273-.836-.305a1.989 1.989 0 00-.835-.453c-.102-.129-.336-.12-.457-.23-.196-.027-.227-.227-.454-.227-.117-.414-.441-.62-.53-1.062-.227-.332-.31-.805-.458-1.215-.043-1.434.094-2.691.379-3.797.348-.59.781-1.094 1.14-1.668.247.02.364-.09.38-.305.304.051.433-.074.683-.074.254-.074.266-.39.457-.531m12.98 6.223c-.011-2.395-.343-4.79-.304-7.133a35.11 35.11 0 00-.152-2.281c-.102-.297-.11-.7-.149-1.063-.262-.168-.223-.637-.457-.836-.422-.23-1.203-.11-1.746-.226-.656-.024-1.254-.114-1.898-.153-1.934-.097-3.973-.074-5.997-.074-2 0-3.953-.145-5.695-.379H3.164C3.07 0 3.062.094 2.937.07 2.34.105 1.863.262 1.345.375 1.133.492.922.609.66.68.523.87.148.824.055 1.059c-.188.21.183.453 0 .605v.914c.172.129.027.578.074.832v.988C.113 5.68.262 6.797.207 8.118c.465 2.765.371 6.538.074 9.413.156.578.364 1.106.453 1.746.258.48.336 1.133.684 1.52.504.207 1.234.187 1.898.23.383.098.668.293 1.141.301 2.844-.207 5.496-.152 8.426-.226 2.703.242 5.8.187 8.277-.227.195-.137.13-.531.227-.762-.055-.383.207-.449.226-.758.133-2.394.168-4.789.153-7.214"
                    fill="#221f1f" />
            </g>
        </svg>
    </symbol>
</svg>